<?xml version="1.0" encoding="UTF-8" standalone="no"?>
<svg
   xmlns:dc="http://purl.org/dc/elements/1.1/"
   xmlns:cc="http://creativecommons.org/ns#"
   xmlns:rdf="http://www.w3.org/1999/02/22-rdf-syntax-ns#"
   xmlns:svg="http://www.w3.org/2000/svg"
   xmlns="http://www.w3.org/2000/svg"
   xmlns:sodipodi="http://sodipodi.sourceforge.net/DTD/sodipodi-0.dtd"
   xmlns:inkscape="http://www.inkscape.org/namespaces/inkscape"
   version="1.1"
   x="0px"
   y="0px"
   viewBox="0 0 284 202.7"
   enable-background="new 0 0 284 202.7"
   xml:space="preserve"
   id="svg2"
   inkscape:version="0.48.4 r9939"
   width="100%"
   height="100%"
   sodipodi:docname="video_icon.svg"><metadata
     id="metadata32"><rdf:RDF><cc:Work
         rdf:about=""><dc:format>image/svg+xml</dc:format><dc:type
           rdf:resource="http://purl.org/dc/dcmitype/StillImage" /><dc:title></dc:title></cc:Work></rdf:RDF></metadata><defs
     id="defs30" /><sodipodi:namedview
     pagecolor="#ffffff"
     bordercolor="#666666"
     borderopacity="1"
     objecttolerance="10"
     gridtolerance="10"
     guidetolerance="10"
     inkscape:pageopacity="0"
     inkscape:pageshadow="2"
     inkscape:window-width="1366"
     inkscape:window-height="705"
     id="namedview28"
     showgrid="false"
     inkscape:zoom="0.97887324"
     inkscape:cx="44.49274"
     inkscape:cy="172.39032"
     inkscape:window-x="0"
     inkscape:window-y="28"
     inkscape:window-maximized="1"
     inkscape:current-layer="g3404" /><style
     id="style4">.style0{fill:	#4F4C4D;}</style><g
     id="g6"
     transform="translate(249.26619,-4.086331)"><g
       id="g8"><circle
         cx="106.9"
         cy="146.2"
         r="11.9"
         class="style0"
         id="circle10"
         d="m 118.8,146.2 c 0,6.57219 -5.32781,11.9 -11.9,11.9 -6.57219,0 -11.899998,-5.32781 -11.899998,-11.9 0,-6.57219 5.327808,-11.9 11.899998,-11.9 6.57219,0 11.9,5.32781 11.9,11.9 z"
         sodipodi:cx="106.9"
         sodipodi:cy="146.2"
         sodipodi:rx="11.9"
         sodipodi:ry="11.9"
         style="fill:#4f4c4d" /><path
         d="m 204.3,153.8 -8.7,-26 v -6.5 h -128 v 56.4 h -4.3 v 9.8 h 27.4 c 0,-9 7.3,-16.3 16.3,-16.3 9,0 16.3,7.3 16.3,16.3 H 174 c 0,-9 7.3,-16.3 16.3,-16.3 6.3,0 11.8,3.6 14.5,8.9 1,1.9 1.6,4 1.7,6.2 0,0.4 0.1,0.8 0.1,1.2 h 13 v -27.1 l -15.3,-6.6 z M 87.6,140.7 c 0,1.2 -1,2.2 -2.2,2.2 H 84 v 17.4 c 0,1.2 -1,2.2 -2.2,2.2 -1.2,0 -2.2,-1 -2.2,-2.2 v -17.4 h -1.4 c -1.2,0 -2.2,-1 -2.2,-2.2 v -10 c 0,-0.4 0.4,-0.8 0.8,-0.8 0.4,0 0.8,0.4 0.8,0.8 v 7.9 h 1.6 v -7.9 c 0,-0.4 0.4,-0.8 0.8,-0.8 0.4,0 0.8,0.4 0.8,0.8 v 7.9 h 1.6 v -7.9 c 0,-0.4 0.4,-0.8 0.8,-0.8 0.4,0 0.8,0.4 0.8,0.8 v 7.9 h 2 v -7.9 c 0,-0.4 0.4,-0.8 0.8,-0.8 0.4,0 0.8,0.4 0.8,0.8 l 0,10 0,0 z m 19.3,21.7 c -9,0 -16.3,-7.3 -16.3,-16.3 0,-9 7.3,-16.3 16.3,-16.3 9,0 16.3,7.3 16.3,16.3 0,9.1 -7.3,16.3 -16.3,16.3 z m 27.1,-2.1 c 0,1.2 -1,2.2 -2.2,2.2 -1.2,0 -2.2,-1 -2.2,-2.2 v -10.9 h -2.2 v -16.3 c 0,-1.8 1.5,-3.3 3.3,-3.3 1.8,0 3.3,1.5 3.3,3.3 v 27.2 z m 42,-6.5 v -19.5 h 15.2 l 6.5,19.5 H 176 z"
         class="style0"
         id="path12"
         inkscape:connector-curvature="0"
         style="fill:#4f4c4d" /><path
         d="m 106.9,175.5 c -6.6,0 -11.9,5.3 -11.9,11.9 0,6.6 5.3,11.9 11.9,11.9 6.6,0 11.9,-5.3 11.9,-11.9 0,-6.6 -5.3,-11.9 -11.9,-11.9 z m 0,18.4 c -3.6,0 -6.5,-2.9 -6.5,-6.5 0,-3.6 2.9,-6.5 6.5,-6.5 3.6,0 6.5,2.9 6.5,6.5 0,3.6 -2.9,6.5 -6.5,6.5 z"
         class="style0"
         id="path14"
         inkscape:connector-curvature="0"
         style="fill:#4f4c4d" /><path
         d="m 190.2,175.5 c -6.6,0 -11.9,5.3 -11.9,11.9 0,6.6 5.3,11.9 11.9,11.9 6.6,0 11.9,-5.3 11.9,-11.9 0,-6.6 -5.4,-11.9 -11.9,-11.9 z m 0,18.4 c -3.6,0 -6.5,-2.9 -6.5,-6.5 0,-3.6 2.9,-6.5 6.5,-6.5 3.6,0 6.5,2.9 6.5,6.5 0,3.6 -3,6.5 -6.5,6.5 z"
         class="style0"
         id="path16"
         inkscape:connector-curvature="0"
         style="fill:#4f4c4d" /></g><g
       id="g18"><path
         d="m 99.2,24.6 c 0,0.8 -0.5,1.3 -1.3,1.3 H 78.1 v 13.7 h 15 c 0.8,0 1.3,0.5 1.3,1.3 v 8 c 0,0.9 -0.5,1.3 -1.3,1.3 h -15 v 19.9 c 0,0.8 -0.5,1.3 -1.3,1.3 h -8.3 c -0.9,0 -1.3,-0.5 -1.3,-1.3 V 16.6 c 0,-0.8 0.4,-1.3 1.3,-1.3 h 29.4 c 0.8,0 1.3,0.5 1.3,1.3 v 8 z"
         class="style0"
         id="path20"
         inkscape:connector-curvature="0"
         style="fill:#4f4c4d" /><path
         d="m 104.8,26.9 c 0,-7.5 4,-11.5 11.5,-11.5 h 9 c 7.5,0 11.5,4 11.5,11.5 v 33 c 0,7.5 -4,11.5 -11.5,11.5 h -9 c -7.5,0 -11.5,-4 -11.5,-11.5 v -33 z M 123.5,61 c 2.1,0 3.2,-1 3.2,-3.2 v -29 c 0,-2.1 -1.1,-3.2 -3.2,-3.2 h -5.1 c -2.1,0 -3.2,1.1 -3.2,3.2 v 29 c 0,2.2 1.1,3.2 3.2,3.2 h 5.1 z"
         class="style0"
         id="path22"
         inkscape:connector-curvature="0"
         style="fill:#4f4c4d" /><path
         d="m 144.8,26.9 c 0,-7.5 4,-11.5 11.5,-11.5 h 9 c 7.5,0 11.5,4 11.5,11.5 v 33 c 0,7.5 -4,11.5 -11.5,11.5 h -9 c -7.5,0 -11.5,-4 -11.5,-11.5 v -33 z M 163.5,61 c 2.1,0 3.2,-1 3.2,-3.2 v -29 c 0,-2.1 -1.1,-3.2 -3.2,-3.2 h -5.1 c -2.1,0 -3.2,1.1 -3.2,3.2 v 29 c 0,2.2 1.1,3.2 3.2,3.2 h 5.1 z"
         class="style0"
         id="path24"
         inkscape:connector-curvature="0"
         style="fill:#4f4c4d" /><path
         d="m 184.8,16.6 c 0,-0.8 0.4,-1.3 1.3,-1.3 h 19.2 c 7.5,0 11.5,4.1 11.5,11.6 v 32.9 c 0,7.5 -4,11.5 -11.5,11.5 h -19.2 c -0.9,0 -1.3,-0.4 -1.3,-1.3 V 16.6 z M 203,60.8 c 2.1,0 3.2,-1 3.2,-3.2 V 29.2 c 0,-2.2 -1.1,-3.3 -3.2,-3.3 h -7.4 v 34.9 h 7.4 z"
         class="style0"
         id="path26"
         inkscape:connector-curvature="0"
         style="fill:#4f4c4d" /></g></g><g
     id="g3027"
     transform="translate(-994.73302,-208.36984)"><g
       id="g3029"
       enable-background="new    "><path
         id="path3031"
         d="m 48,415 c 0,0.9 -0.6,1.5 -1.5,1.5 H 23.7 V 435 H 41 c 0.9,0 1.5,0.6 1.5,1.5 v 9.2 c 0,1 -0.6,1.5 -1.5,1.5 H 23.7 v 29.4 c 0,0.9 -0.6,1.5 -1.5,1.5 h -9.6 c -1,0 -1.5,-0.6 -1.5,-1.5 v -70.7 c 0,-0.9 0.5,-1.5 1.5,-1.5 h 33.9 c 0.9,0 1.5,0.6 1.5,1.5 v 9.1 z"
         inkscape:connector-curvature="0"
         style="fill:#ffffff" /><path
         id="path3033"
         d="m 90.8,413.5 c 1,0 1.5,0.6 1.5,1.5 v 9.2 c 0,0.9 -0.5,1.5 -1.5,1.5 H 80.1 v 50.8 c 0,1 -0.5,1.5 -1.5,1.5 H 69 c -0.9,0 -1.5,-0.5 -1.5,-1.5 V 425.7 H 56.9 c -0.9,0 -1.5,-0.6 -1.5,-1.5 V 415 c 0,-0.9 0.6,-1.5 1.5,-1.5 h 33.9 z"
         inkscape:connector-curvature="0"
         style="fill:#ffffff" /><path
         id="path3035"
         d="m 123.9,415 c 0,-0.9 0.6,-1.5 1.5,-1.5 h 9.5 c 1.1,0 1.6,0.6 1.6,1.5 v 61.5 c 0,0.9 -0.5,1.5 -1.6,1.5 h -9.5 c -0.9,0 -1.5,-0.6 -1.5,-1.5 V 452 h -11.8 v 24.5 c 0,0.9 -0.6,1.5 -1.5,1.5 h -9.5 c -1.1,0 -1.6,-0.6 -1.6,-1.5 V 415 c 0,-0.9 0.5,-1.5 1.6,-1.5 h 9.5 c 0.9,0 1.5,0.6 1.5,1.5 v 24.9 h 11.8 V 415 z"
         inkscape:connector-curvature="0"
         style="fill:#ffffff" /><path
         id="path3037"
         d="m 205.4,415 c 0,0.9 -0.4,1.6 -1.5,1.6 h -23 V 435 h 17.6 c 0.9,0 1.5,0.6 1.5,1.6 v 9.1 c 0,1 -0.6,1.6 -1.5,1.6 h -17.6 v 18.6 h 23 c 1.1,0 1.5,0.5 1.5,1.5 v 9.2 c 0,0.9 -0.4,1.5 -1.5,1.5 H 170 c -0.8,0 -1.4,-0.6 -1.4,-1.5 v -70.7 c 0,-0.9 0.6,-1.5 1.4,-1.5 h 33.9 c 1.1,0 1.5,0.6 1.5,1.5 v 9.1 z"
         inkscape:connector-curvature="0"
         style="fill:#ffffff" /><path
         id="path3039"
         d="m 238.2,413.5 c 8.7,0 13.3,4.6 13.3,13.3 v 6.1 c 0,0.9 -0.5,1.5 -1.5,1.5 h -9.3 c -0.9,0 -1.5,-0.6 -1.5,-1.5 V 429 c 0,-2.4 -1.2,-3.7 -3.7,-3.7 h -5.1 c -2.3,0 -3.7,1.3 -3.7,3.7 v 7.8 L 249,444 c 1.6,0.6 2.4,1.7 2.4,3.4 v 17.3 c 0,8.7 -4.6,13.3 -13.3,13.3 h -10.3 c -8.6,0 -13.3,-4.6 -13.3,-13.3 v -6 c 0,-1 0.6,-1.5 1.5,-1.5 h 9.3 c 1,0 1.5,0.5 1.5,1.5 v 3.9 c 0,2.5 1.4,3.7 3.7,3.7 h 5 c 2.4,0 3.7,-1.2 3.7,-3.7 v -9.3 l -22.1,-7.2 c -1.7,-0.6 -2.5,-1.7 -2.5,-3.4 v -15.9 c 0,-8.7 4.7,-13.3 13.3,-13.3 h 10.3 z"
         inkscape:connector-curvature="0"
         style="fill:#ffffff" /><path
         id="path3041"
         d="m 291.4,413.5 c 1,0 1.5,0.6 1.5,1.5 v 9.2 c 0,0.9 -0.5,1.5 -1.5,1.5 h -10.7 v 50.8 c 0,1 -0.5,1.5 -1.5,1.5 h -9.6 c -0.9,0 -1.5,-0.5 -1.5,-1.5 v -50.8 h -10.7 c -0.9,0 -1.5,-0.6 -1.5,-1.5 V 415 c 0,-0.9 0.6,-1.5 1.5,-1.5 h 34 z"
         inkscape:connector-curvature="0"
         style="fill:#ffffff" /><path
         id="path3043"
         d="m 327.4,477.9 c -0.8,0 -1.3,-0.5 -1.5,-1.3 L 323,465 h -17.3 l -2.9,11.6 c -0.2,0.8 -0.6,1.3 -1.5,1.3 h -9 c -1,0 -1.5,-0.6 -1.2,-1.6 l 15.3,-61.6 c 0.2,-0.9 0.7,-1.3 1.6,-1.3 h 12.8 c 0.8,0 1.4,0.4 1.6,1.3 l 15.3,61.6 c 0.3,1 -0.2,1.6 -1.3,1.6 h -9 z m -13.1,-48.6 -5.8,25 h 11.6 l -5.8,-25 z"
         inkscape:connector-curvature="0"
         style="fill:#ffffff" /><path
         id="path3045"
         d="m 371.2,413.5 c 1,0 1.5,0.6 1.5,1.5 v 9.2 c 0,0.9 -0.5,1.5 -1.5,1.5 h -10.7 v 50.8 c 0,1 -0.5,1.5 -1.5,1.5 h -9.6 c -0.9,0 -1.5,-0.5 -1.5,-1.5 v -50.8 h -10.7 c -0.9,0 -1.5,-0.6 -1.5,-1.5 V 415 c 0,-0.9 0.6,-1.5 1.5,-1.5 h 34 z"
         inkscape:connector-curvature="0"
         style="fill:#ffffff" /><path
         id="path3047"
         d="m 416.8,424.2 c 0,0.9 -0.4,1.6 -1.5,1.6 H 392.6 V 440 h 17.3 c 0.9,0 1.5,0.6 1.5,1.6 v 9.1 c 0,1 -0.6,1.6 -1.5,1.6 h -17.3 v 13.6 h 22.7 c 1.1,0 1.5,0.5 1.5,1.5 v 9.2 c 0,0.9 -0.4,1.5 -1.5,1.5 h -33.9 c -0.8,0 -1.4,-0.6 -1.4,-1.5 V 415 c 0,-0.9 0.6,-1.5 1.4,-1.5 h 33.9 c 1.1,0 1.5,0.6 1.5,1.5 v 9.2 z"
         inkscape:connector-curvature="0"
         style="fill:#ffffff" /></g><g
       id="g3049"><path
         id="path3051"
         d="m 44.3,308.7 170,48.1 169.8,-48.7 C 383.5,241.6 371.2,149.3 316.2,80.8 281,36.8 239.3,17.2 213.7,17.4 c -35.2,0 -77.8,33.1 -102.1,64 -55.1,68.7 -67.1,160.8 -67.3,227.3 z"
         inkscape:connector-curvature="0"
         style="fill:#ffffff" /><path
         id="path3053"
         d="M 214.1,366.2 35.1,315.5 V 312 C 35.1,243.9 47,147.5 104.3,75.5 141.3,29.1 185.9,8.2 213.6,8 c 27.8,0 72.4,20.7 109.5,66.9 57.7,71.8 69.8,168.2 70,236.5 v 3.5 l -179,51.3 z m -169.8,-57.7 170,48.1 169.8,-48.7 C 383.5,241.4 371.2,149.1 316.2,80.6 281,36.6 239.3,17 213.7,17.2 178.5,17.2 135.9,50.3 111.6,81.2 56.5,149.9 44.5,242 44.3,308.5 z"
         inkscape:connector-curvature="0"
         style="fill:#999999" /><path
         id="path3055"
         d="m 258.3,124.3 c 0,2.9 -1.6,4.5 -4.3,4.5 l -67.5,0.2 v 48.3 h 51.2 c 2.7,0 4.3,1.6 4.3,4.5 V 210 c 0,3.1 -1.6,4.5 -4.3,4.5 h -51.2 l 0.2,70.4 c 0,2.9 -1.6,4.5 -4.3,4.5 H 154 c -3.1,0 -4.3,-1.6 -4.3,-4.5 L 149.3,96.2 c 0,-2.9 1.4,-4.5 4.3,-4.5 l 100.3,-0.2 c 2.7,0 4.3,1.6 4.3,4.5 l 0.1,28.3 z"
         inkscape:connector-curvature="0"
         style="fill:#ff8f7d" /><path
         id="path3057"
         d="m 190.2,246.3 c 0,2.5 2,4.5 4.5,4.5 h 38.9 c 2.5,0 4.5,-2 4.5,-4.5 v -11.7 c 0,-2.5 -2,-4.5 -4.5,-4.5 h -38.9 c -2.5,0 -4.5,2 -4.5,4.5 v 11.7 z"
         inkscape:connector-curvature="0"
         style="fill:#999999" /><rect
         id="rect3059"
         height="24.299999"
         width="26.200001"
         transform="matrix(-1,0.00174037,-0.00174037,-1,428.6874,554.5756)"
         y="265.29999"
         x="201"
         style="fill:#999999" /><path
         id="path3061"
         d="m 296.4,248.1 c -1.8,-1.4 -4.1,-2.7 -8.4,-3.9 -2.5,-0.6 -5.7,-1.2 -9.8,-1.4 -2.3,-0.2 -4.7,-0.2 -7.4,-0.2 0.4,0 0.6,0 1,0 -0.2,0 -0.4,0 -0.8,0 -0.4,0 -0.8,0 -1.2,0 l 0,0 0,0 c -0.4,0 -0.6,0 -1,0 -3.3,0 -6.1,0.2 -8.8,0.4 l -0.2,-23.5 c 0,-0.6 0,-1 0,-1.4 0,-0.6 -0.2,-1.2 -0.4,-1.4 -0.4,-0.6 -0.6,-1 -1.2,-1.4 -0.6,-0.4 -1.4,-1 -2.9,-1 l 0,0 0,0 h -9 c -1.2,0 -2.3,0.4 -2.9,1 -0.6,0.4 -0.8,0.8 -1.2,1.4 -0.2,0.4 -0.4,1 -0.4,1.6 l 0.2,72.6 h 1.6 14.9 1.2 0.8 v -24.8 c 0,-1.4 0.2,-2.5 0.4,-3.1 0.4,-0.6 0.6,-1 1.2,-1.4 0.6,-0.4 1.6,-1 2.9,-1 h 9.4 c 1.4,0 2.3,0.4 2.9,1 0.6,0.4 0.8,0.8 1.2,1.4 0.4,0.6 0.4,1.6 0.4,3.1 v 24.8 h 0.8 1.2 17 v -36.4 c 0.3,-2.7 0.7,-4.8 -1.5,-6.4 z"
         inkscape:connector-curvature="0"
         style="fill:#999999" /></g></g><style
     id="style3089">.style0{fill:	#4F4C4D;}</style><g
     id="g3124"
     transform="translate(-520.41959,189.26052)"><g
       id="g3091"><path
         id="path3093"
         class="style0"
         d="m 146.7,157.7 c -0.5,-0.4 -1,-0.7 -1.7,-0.9 -0.3,-0.1 0,-0.2 -1,-0.3 v 8.8 c 0,0.3 0.2,0.5 0.5,0.4 1.5,-0.2 1.7,-0.6 2.4,-1.2 0.9,-0.7 1.4,-1.9 1.4,-3.6 0,-0.8 -0.1,-1.4 -0.4,-1.9 -0.4,-0.5 -0.8,-1 -1.2,-1.3 z"
         inkscape:connector-curvature="0"
         style="fill:#4f4c4d" /><path
         id="path3095"
         class="style0"
         d="m 180.5,121.2 c -5.3,-5.3 -12.4,-8.2 -19.9,-8.2 -6.8,0 -13.3,2.4 -18.4,6.8 -0.2,0.1 -0.4,0.1 -0.6,0 -5.1,-4.4 -11.6,-6.8 -18.4,-6.8 -7.5,0 -14.5,2.9 -19.9,8.2 -5.3,5.3 -8.3,12.3 -8.3,19.6 0,7.7 3.2,15.2 9,21.1 12.7,12.7 32.9,32.9 36.5,36.5 0.3,0.3 0.8,0.5 1.3,0.5 0,0 0,0 0,0 0.5,0 0.9,-0.2 1.3,-0.5 l 6.9,-6.9 c 8,-8 20.7,-20.7 29.6,-29.6 5.8,-5.8 9.1,-13.3 9.1,-21.1 0.1,-7.3 -2.8,-14.3 -8.2,-19.6 z m -25.8,44.1 c -0.7,1.5 -1.6,2.7 -2.7,3.7 -1.1,1 -2.5,1.7 -4,2.2 -1.2,0.4 -1.9,0.6 -3.5,0.8 -0.2,0 -0.4,0.2 -0.4,0.4 v 3.9 c 0,0.4 -0.3,0.7 -0.7,0.7 h -2.8 c -0.3,0 -0.6,-0.3 -0.6,-0.6 v -3.9 c 0,-0.2 -0.2,-0.4 -0.4,-0.4 -1.7,-0.1 -2.6,-0.4 -3.9,-0.8 -1.6,-0.6 -3,-1.4 -4.1,-2.4 -1.1,-1.1 -2,-2.4 -2.7,-3.9 -0.6,-1.6 -0.9,-3.3 -0.9,-5.3 0,-0.3 0.3,-0.6 0.6,-0.6 h 6 c 0.2,0 0.5,0 0.6,0.1 0.2,0.2 0.3,0.3 0.3,0.6 0,2 0.4,3.5 1.2,4.5 0.6,0.8 1.2,1.3 2.8,1.5 0.3,0 0.5,-0.2 0.5,-0.4 v -9.5 c 0,-0.2 -0.1,-0.4 -0.3,-0.4 -1,-0.3 -2.1,-0.7 -3.2,-1.1 -1.4,-0.5 -2.7,-1.2 -3.8,-2.1 -1.2,-0.9 -2.1,-2 -2.8,-3.3 -0.7,-1.3 -1.1,-3 -1.1,-5 0,-1.7 0.3,-3.3 1,-4.6 0.7,-1.3 1.6,-2.4 2.7,-3.3 1.1,-0.9 2.4,-1.5 3.9,-2 1,-0.3 2.3,-0.5 3.2,-0.6 0.2,0 0.4,-0.2 0.4,-0.4 v -2.5 c 0,-0.2 0.2,-0.4 0.4,-0.4 h 2.9 c 0.3,0 0.6,0.3 0.6,0.6 v 2.2 c 0,0.2 0.2,0.4 0.4,0.4 1.6,0.1 2.1,0.3 3.1,0.6 1.4,0.4 2.7,1.1 3.7,1.9 1.1,0.9 1.9,2 2.6,3.3 0.7,1.5 1,3.4 0.9,5.3 0,0.3 -0.3,0.5 -0.6,0.5 h -6.3 c -0.3,0 -0.6,-0.3 -0.6,-0.6 0,-1.7 -0.3,-3 -1.1,-3.8 -0.4,-0.4 -1,-0.8 -1.7,-1 -0.3,-0.1 -0.6,0.1 -0.6,0.4 v 7.9 c 0,0.2 0.2,0.4 0.4,0.4 1.7,0.3 2.2,0.7 3.4,1.2 1.5,0.6 2.8,1.3 4,2.2 1.2,0.9 2.1,2 2.9,3.4 0.7,1.4 1.1,3 1.1,4.9 0.2,2 -0.2,3.8 -0.8,5.3 z"
         inkscape:connector-curvature="0"
         style="fill:#4f4c4d" /><path
         id="path3097"
         class="style0"
         d="m 136.2,143.5 c 0,0.6 0.1,1.2 0.4,1.6 0.3,0.5 0.6,0.9 1,1.2 0.4,0.3 1.3,0.6 1.9,0.8 0.3,0.1 1.2,0.2 1.2,0.3 v -7.8 c -1,0.1 -2.4,0.4 -3,0.9 -0.8,0.5 -1.5,1.5 -1.5,3 z"
         inkscape:connector-curvature="0"
         style="fill:#4f4c4d" /><path
         id="path3099"
         class="style0"
         d="m 140,147.4 c 0,-0.1 -0.6,-0.2 -0.8,-0.3 -0.6,-0.2 -1.1,-0.5 -1.6,-0.8 -0.4,-0.3 -0.8,-0.7 -1,-1.2 -0.2,-0.4 -0.4,-0.9 -0.4,-1.6 0,-1.5 0.3,-2.5 1.1,-3 0.5,-0.4 1.4,-0.7 2.2,-0.8 0.2,0 0.5,0.2 0.5,0.4 v 7.3 z m 6.9,17.1 c -0.7,0.6 -0.9,1 -2.4,1.2 -0.2,0 -0.5,-0.2 -0.5,-0.4 v -8.9 c 1,0.1 0.7,0.1 1.1,0.3 0.6,0.2 1.2,0.6 1.7,1 0.5,0.4 0.8,0.8 1.1,1.3 0.3,0.5 0.4,1.1 0.4,1.9 0,1.7 -0.5,2.9 -1.4,3.6 z"
         inkscape:connector-curvature="0"
         style="fill:#4f4c4d" /></g><g
       id="g3101"><path
         id="path3103"
         class="style0"
         d="M 28.5,16 C 36,16 40,20 40,27.5 v 5.3 c 0,0.8 -0.4,1.3 -1.3,1.3 h -8.1 c -0.8,0 -1.3,-0.5 -1.3,-1.3 v -3.4 c 0,-2.1 -1,-3.2 -3.2,-3.2 h -4.4 c -2,0 -3.2,1.1 -3.2,3.2 v 6.8 l 19.4,6.2 c 1.4,0.5 2.1,1.4 2.1,3 v 15 C 40,68 36,72 28.5,72 h -9 C 12.1,72 8,68 8,60.5 V 55.3 C 8,54.4 8.5,54 9.3,54 h 8.1 c 0.9,0 1.3,0.4 1.3,1.3 v 3.4 c 0,2.2 1.2,3.2 3.2,3.2 h 4.3 c 2.1,0 3.2,-1 3.2,-3.2 V 50.6 L 10.2,44.4 C 8.8,43.9 8,43 8,41.4 V 27.5 C 8,20 12.1,16 19.5,16 h 9 z"
         inkscape:connector-curvature="0"
         style="fill:#4f4c4d" /><path
         id="path3105"
         class="style0"
         d="m 78.4,16 c 0.9,0 1.6,0.7 1.6,1.6 V 60.5 C 80,68 76,72 68.5,72 h -9 C 52,72 48,68 48,60.5 V 17.6 C 48,16.7 48.7,16 49.6,16 h 7.7 c 0.9,0 1.6,0.7 1.6,1.6 v 40.6 c 0,2.2 1.1,3.2 3.2,3.2 h 4.2 c 2.1,0 3.2,-1 3.2,-3.2 V 17.6 c 0,-0.9 0.7,-1.6 1.6,-1.6 h 7.3 z"
         inkscape:connector-curvature="0"
         style="fill:#4f4c4d" /><path
         id="path3107"
         class="style0"
         d="M 88,17.3 C 88,16.5 88.5,16 89.3,16 h 19.2 c 7.5,0 11.5,4 11.5,11.5 v 15.7 c 0,7.4 -4,11.4 -11.5,11.5 l -10.1,0.1 v 16 c 0,0.8 -0.4,1.3 -1.3,1.3 L 89.3,72 C 88.5,72 88,71.5 88,70.7 V 17.3 z m 18.4,27.1 c 2.2,0 3.2,-1.2 3.2,-3.2 V 29.5 c 0,-2.1 -1,-3.2 -3.2,-3.2 l -8,0.1 v 18.1 l 8,-0.1 z"
         inkscape:connector-curvature="0"
         style="fill:#4f4c4d" /><path
         id="path3109"
         class="style0"
         d="m 128,17.3 c 0,-0.8 0.5,-1.3 1.3,-1.3 h 19.2 c 7.5,0 11.5,4 11.5,11.5 v 15.7 c 0,7.4 -4,11.4 -11.5,11.5 l -10.1,0.1 v 16 c 0,0.8 -0.4,1.3 -1.3,1.3 L 129.3,72 C 128.5,72 128,71.5 128,70.7 V 17.3 z m 18.4,27.1 c 2.2,0 3.2,-1.2 3.2,-3.2 V 29.5 c 0,-2.1 -1,-3.2 -3.2,-3.2 l -8,0.1 v 18.1 l 8,-0.1 z"
         inkscape:connector-curvature="0"
         style="fill:#4f4c4d" /><path
         id="path3111"
         class="style0"
         d="m 167.2,27.5 c 0,-7.5 4,-11.5 11.5,-11.5 h 9 c 7.5,0 11.5,4 11.5,11.5 v 33 c 0,7.5 -4,11.5 -11.5,11.5 h -9 c -7.5,0 -11.5,-4 -11.5,-11.5 v -33 z m 18.7,34.2 c 2.1,0 3.2,-1 3.2,-3.2 v -29 c 0,-2.1 -1.1,-3.2 -3.2,-3.2 h -5.1 c -2.1,0 -3.2,1.1 -3.2,3.2 v 29 c 0,2.2 1.1,3.2 3.2,3.2 h 5.1 z"
         inkscape:connector-curvature="0"
         style="fill:#4f4c4d" /><path
         id="path3113"
         class="style0"
         d="m 239.2,43.6 c 0,4.6 -1.5,7.9 -4.5,9.8 l 4.2,17.2 c 0.2,1 -0.2,1.4 -1.1,1.4 H 230 c -0.8,0 -1.2,-0.4 -1.4,-1.1 l -3.8,-15.8 h -7.1 v 15.6 c 0,0.8 -0.5,1.3 -1.3,1.3 h -7.8 c -0.8,0 -1.3,-0.5 -1.3,-1.3 V 17.3 c 0,-0.8 0.5,-1.3 1.3,-1.3 h 19.2 c 7.5,0 11.5,4 11.5,11.5 v 16.1 z m -13.6,1.2 c 2.1,0 3.2,-1.1 3.2,-3.2 V 29.5 c 0,-2.1 -1.1,-3.2 -3.2,-3.2 h -8 v 18.5 h 8 z"
         inkscape:connector-curvature="0"
         style="fill:#4f4c4d" /><path
         id="path3115"
         class="style0"
         d="m 276.3,16 c 0.9,0 1.3,0.5 1.3,1.3 v 8 c 0,0.8 -0.4,1.3 -1.3,1.3 H 267 v 44.2 c 0,0.9 -0.4,1.3 -1.3,1.3 h -8.3 c -0.8,0 -1.3,-0.4 -1.3,-1.3 V 26.6 h -9.3 c -0.8,0 -1.3,-0.5 -1.3,-1.3 v -8 c 0,-0.8 0.5,-1.3 1.3,-1.3 h 29.5 z"
         inkscape:connector-curvature="0"
         style="fill:#4f4c4d" /></g></g><style
     id="style3141">.style0{fill:	#4F4C4D;}</style><g
     id="g3174"
     transform="translate(571.04839,-7.2857287)"><g
       id="g3143"><path
         id="path3145"
         class="style0"
         d="m 142.7,108.7 c 0.1,-2.1 0,-4.3 1.7,-4.1 0.8,0.1 2.3,0.3 4.1,0.6 2,0.4 1.7,11.1 1.7,11.1 l 7.2,2.8 c 0.2,-7.8 -1.7,-16.8 -3.6,-17.3 -3.2,-0.9 -8,-2.9 -12.7,-1.8 -3.2,0.7 -4,12.3 -4,12.3 l 5.5,1.4 c -0.1,0 -0.1,-1.7 0.1,-5 z"
         inkscape:connector-curvature="0"
         style="fill:#4f4c4d" /><path
         id="path3147"
         class="style0"
         d="m 109.3,148 c 1.2,0.4 3.1,1.1 5.4,1.8 1.7,-4.7 4.6,-8.3 4.6,-8.3 0,0 0.7,-1.7 4,-1 3.3,0.7 3.5,2.2 3.5,2.2 0,0 -2.2,3.5 -4.3,8.2 -0.1,0.3 -0.3,0.7 -0.4,1.1 5.3,1.5 10.4,2.9 11.9,3 2.9,0.3 10.2,0.6 11.6,-6.4 1.4,-6.9 2.7,-11.1 3.9,-13.8 0.2,-0.6 0.4,-1.1 0.6,-1.4 0.3,-0.7 1.3,-2.1 2.7,-3.5 0,0 0,0 0,0 0,0 0,0 0,0 1.9,-1.8 4.5,-3.6 7.4,-3.6 0.2,0 0.3,0 0.6,0.1 -1.7,-1.9 -3.7,-3.5 -5.8,-4.3 -0.5,-0.2 -17.7,-7 -22.9,-6.3 -0.1,0 -0.3,0 -0.4,0.1 0.2,0 0.4,-0.1 0.4,-0.1 0,0 -11.8,0.3 -19.6,8.1 -4.1,4.1 -7.7,11.4 -9.9,18.4 -0.2,1.7 2,3.9 6.7,5.7 z"
         inkscape:connector-curvature="0"
         style="fill:#4f4c4d" /><path
         id="path3149"
         class="style0"
         d="m 132.4,160.3 c -2.3,-0.4 -6.6,-1.6 -11.2,-3 -0.7,2.8 -0.1,7.5 -0.1,7.5 0,0 -0.9,2.2 -4.5,1.4 -3,-0.7 -3,-2.9 -3,-2.9 0,0 -0.8,-4.4 -0.1,-8.4 -4.4,-1.4 -8.1,-2.6 -9.5,-3.1 -1.6,-0.6 -2.8,-1.5 -3.7,-2.5 -0.1,0.4 -0.1,2 -0.2,2.3 -3.1,22.1 3.3,31.6 3.8,33.6 0.6,2.7 12.4,8.4 23.7,12.5 6.6,2.4 13.9,1.9 16.9,1.7 l 0.2,0 c 0.5,-8.5 1.7,-30.8 2.4,-44.4 -0.9,5.1 -9.2,6.3 -14.7,5.3 z"
         inkscape:connector-curvature="0"
         style="fill:#4f4c4d" /><path
         id="path3151"
         class="style0"
         d="m 167.2,163.8 c -0.1,-4.7 -0.2,-8.6 -0.3,-9.3 -0.1,-1.3 -0.2,-3.7 -0.2,-6.4 -0.5,-5.7 -1.9,-11.7 -3.2,-14.9 -2.1,-5.3 -8.2,1.4 -9.9,5.5 -1.8,4.3 -3.5,54.4 -3.6,59.4 4.2,-1.1 10.3,-2.7 11.1,-3.9 1.6,-2.5 2.4,-4.9 2.8,-6.9 0.3,-1.4 3.8,-2.6 3.8,-2.6 0,0 -0.2,-10.8 -0.5,-19.5 l -0.1,0.2 c 0,0.1 0.1,-0.5 0.1,-1.6 z"
         inkscape:connector-curvature="0"
         style="fill:#4f4c4d" /><path
         id="path3153"
         class="style0"
         d="m 182.8,142.1 c 0,0 -0.9,-10.7 -1.1,-12.8 -0.5,-5 -5,-21.2 -20.5,-8.8 l 4.1,4.5 c 0,0 10.5,-9.4 10.9,13 0,1.9 0.2,4.6 1.3,20.5 1.3,17.7 -5.6,17.8 -5.6,17.8 l 0.3,7.5 c 0,0 2.6,-0.7 5.2,-1.8 3.8,-1.6 7.3,-8.2 7.3,-17.9 0,-3.9 -1.9,-22 -1.9,-22 z"
         inkscape:connector-curvature="0"
         style="fill:#4f4c4d" /><path
         id="path3155"
         class="style0"
         d="m 128.5,112 3.4,-0.5 v -2.9 l 0.7,-2.4 c 0,0 -3.2,1.4 -4.1,2.9 -0.9,1.4 -1.3,2.2 -1.3,2.9 0,0.7 1.3,0 1.3,0 z"
         inkscape:connector-curvature="0"
         style="fill:#4f4c4d" /></g><g
       id="g3157"><path
         id="path3159"
         class="style0"
         d="m 102.9,71.3 c -1,0 -1.4,-0.4 -1.8,-1.2 L 91,50.3 88,56 v 13.7 c 0,1 -0.6,1.6 -1.6,1.6 h -7.7 c -1,0 -1.6,-0.6 -1.6,-1.6 V 16.9 c 0,-1 0.6,-1.6 1.6,-1.6 h 7.7 c 1,0 1.6,0.6 1.6,1.6 v 20.8 l 12.3,-21.2 c 0.4,-0.7 1,-1.2 1.8,-1.2 h 8.4 c 1.2,0 1.8,0.9 1.1,1.9 l -13.5,23.9 14.5,28.3 c 0.6,1 0.1,1.8 -1.2,1.8 h -8.5 z"
         inkscape:connector-curvature="0"
         style="fill:#4f4c4d" /><path
         id="path3161"
         class="style0"
         d="M 121.3,71.3 C 120.4,71.3 120,70.8 120,70 V 16.6 c 0,-0.8 0.4,-1.3 1.3,-1.3 h 8.3 c 0.8,0 1.3,0.5 1.3,1.3 V 70 c 0,0.8 -0.5,1.3 -1.3,1.3 h -8.3 z"
         inkscape:connector-curvature="0"
         style="fill:#4f4c4d" /><path
         id="path3163"
         class="style0"
         d="m 167.2,15.3 c 0.9,0 1.3,0.5 1.3,1.3 v 8 c 0,0.8 -0.4,1.3 -1.3,1.3 h -9.3 V 70 c 0,0.9 -0.4,1.3 -1.3,1.3 h -8.3 C 147.5,71.3 147,70.9 147,70 V 25.9 h -9.3 c -0.8,0 -1.3,-0.5 -1.3,-1.3 v -8 c 0,-0.8 0.5,-1.3 1.3,-1.3 h 29.5 z"
         inkscape:connector-curvature="0"
         style="fill:#4f4c4d" /><path
         id="path3165"
         class="style0"
         d="m 195.4,15.3 c 7.5,0 11.5,4 11.5,11.5 v 5.3 c 0,0.8 -0.4,1.3 -1.3,1.3 h -8.1 c -0.8,0 -1.3,-0.5 -1.3,-1.3 v -3.4 c 0,-2.1 -1,-3.2 -3.2,-3.2 h -4.4 c -2,0 -3.2,1.1 -3.2,3.2 v 6.8 l 19.4,6.2 c 1.4,0.5 2.1,1.4 2.1,3 v 15 c 0,7.5 -4,11.5 -11.5,11.5 h -9 c -7.4,0 -11.5,-4 -11.5,-11.5 v -5.2 c 0,-0.9 0.5,-1.3 1.3,-1.3 h 8.1 c 0.9,0 1.3,0.4 1.3,1.3 v 3.4 c 0,2.2 1.2,3.2 3.2,3.2 h 4.3 c 2.1,0 3.2,-1 3.2,-3.2 V 49.8 L 177,43.6 c -1.4,-0.5 -2.2,-1.4 -2.2,-3 V 26.8 c 0,-7.5 4.1,-11.5 11.5,-11.5 h 9.1 z"
         inkscape:connector-curvature="0"
         style="fill:#4f4c4d" /></g></g><style
     id="style3190">.style0{opacity:	0.85;}.style1{fill:	#FFFFFF;}.style2{fill:	#999999;}.style3{fill:	#FF8F7D;}</style><g
     id="g3192"
     transform="translate(497.48816,-483.03419)"><g
       id="g3194"
       class="style0"
       style="opacity:0.85"><g
         id="g3196"><path
           id="path3198"
           class="style1"
           d="m -65.7,162.3 c 0,0.5 -0.3,0.7 -0.7,0.7 h -11.2 v 9 h 8.5 c 0.5,0 0.7,0.3 0.7,0.7 v 4.5 c 0,0.5 -0.3,0.7 -0.7,0.7 h -8.5 v 14.4 c 0,0.5 -0.3,0.7 -0.7,0.7 H -83 c -0.5,0 -0.7,-0.3 -0.7,-0.7 v -34.6 c 0,-0.5 0.2,-0.7 0.7,-0.7 h 16.6 c 0.4,0 0.7,0.3 0.7,0.7 v 4.6 z"
           inkscape:connector-curvature="0"
           style="fill:#ffffff" /><path
           id="path3200"
           class="style1"
           d="m -63,168 c 0,-4.2 2.2,-6.5 6.5,-6.5 h 5 c 4.2,0 6.5,2.2 6.5,6.5 v 18.5 c 0,4.2 -2.2,6.5 -6.5,6.5 h -5 c -4.2,0 -6.5,-2.2 -6.5,-6.5 V 168 z m 10.5,19.3 c 1.2,0 1.8,-0.6 1.8,-1.8 v -16.3 c 0,-1.2 -0.6,-1.8 -1.8,-1.8 h -2.9 c -1.2,0 -1.8,0.6 -1.8,1.8 v 16.3 c 0,1.2 0.6,1.8 1.8,1.8 h 2.9 z"
           inkscape:connector-curvature="0"
           style="fill:#ffffff" /><path
           id="path3202"
           class="style1"
           d="m -22.5,177.1 c 0,2.6 -0.9,4.5 -2.5,5.5 l 2.3,9.7 c 0.1,0.5 -0.1,0.8 -0.6,0.8 h -4.4 c -0.4,0 -0.7,-0.2 -0.8,-0.6 l -2.2,-8.9 h -4 v 8.8 c 0,0.5 -0.3,0.7 -0.7,0.7 h -4.4 c -0.4,0 -0.7,-0.3 -0.7,-0.7 v -30.1 c 0,-0.5 0.3,-0.7 0.7,-0.7 H -29 c 4.2,0 6.5,2.2 6.5,6.5 v 9 z m -7.6,0.7 c 1.2,0 1.8,-0.6 1.8,-1.8 v -6.8 c 0,-1.2 -0.6,-1.8 -1.8,-1.8 h -4.5 v 10.4 h 4.5 z"
           inkscape:connector-curvature="0"
           style="fill:#ffffff" /><path
           id="path3204"
           class="style1"
           d="m 9.6,157.1 c 0.5,0 0.7,0.3 0.7,0.7 v 4.5 c 0,0.5 -0.2,0.7 -0.7,0.7 H 4.4 v 29.3 c 0,0.5 -0.2,0.7 -0.7,0.7 H -1 c -0.5,0 -0.7,-0.2 -0.7,-0.7 V 163 h -5.2 c -0.4,0 -0.7,-0.3 -0.7,-0.7 v -4.5 c 0,-0.5 0.3,-0.7 0.7,-0.7 H 9.6 z"
           inkscape:connector-curvature="0"
           style="fill:#ffffff" /><path
           id="path3206"
           class="style1"
           d="m 25.8,162.3 c 0,-0.5 0.3,-0.7 0.7,-0.7 h 4.6 c 0.5,0 0.8,0.3 0.8,0.7 v 30.1 c 0,0.5 -0.2,0.7 -0.8,0.7 h -4.6 c -0.5,0 -0.7,-0.3 -0.7,-0.7 v -12 H 20 v 12 c 0,0.5 -0.3,0.7 -0.7,0.7 h -4.6 c -0.5,0 -0.8,-0.3 -0.8,-0.7 v -30.1 c 0,-0.5 0.2,-0.7 0.8,-0.7 h 4.6 c 0.4,0 0.7,0.3 0.7,0.7 v 12.1 h 5.8 v -12.1 z"
           inkscape:connector-curvature="0"
           style="fill:#ffffff" /><path
           id="path3208"
           class="style1"
           d="m 54.4,166.8 c 0,0.5 -0.2,0.8 -0.7,0.8 H 42.6 v 6.9 H 51 c 0.5,0 0.7,0.3 0.7,0.8 v 4.5 c 0,0.5 -0.3,0.8 -0.7,0.8 h -8.5 v 6.7 h 11.1 c 0.5,0 0.7,0.2 0.7,0.7 v 4.5 c 0,0.5 -0.2,0.7 -0.7,0.7 H 37.1 c -0.4,0 -0.7,-0.3 -0.7,-0.7 v -30.1 c 0,-0.5 0.3,-0.7 0.7,-0.7 h 16.6 c 0.5,0 0.7,0.3 0.7,0.7 v 4.4 z"
           inkscape:connector-curvature="0"
           style="fill:#ffffff" /><path
           id="path3210"
           class="style1"
           d="m 82.1,157.8 c 0,-0.5 0.3,-0.7 0.7,-0.7 h 4.6 c 0.5,0 0.8,0.3 0.8,0.7 v 34.6 c 0,0.5 -0.2,0.7 -0.8,0.7 h -4.6 c -0.5,0 -0.7,-0.3 -0.7,-0.7 V 178 h -5.8 v 14.3 c 0,0.5 -0.3,0.7 -0.7,0.7 H 71 c -0.5,0 -0.8,-0.3 -0.8,-0.7 v -34.6 c 0,-0.5 0.2,-0.7 0.8,-0.7 h 4.6 c 0.4,0 0.7,0.3 0.7,0.7 V 172 h 5.8 v -14.2 z"
           inkscape:connector-curvature="0"
           style="fill:#ffffff" /><path
           id="path3212"
           class="style1"
           d="m 92.7,168 c 0,-4.2 2.2,-6.5 6.5,-6.5 h 5 c 4.2,0 6.5,2.2 6.5,6.5 v 18.5 c 0,4.2 -2.2,6.5 -6.5,6.5 h -5 c -4.2,0 -6.5,-2.2 -6.5,-6.5 V 168 z m 10.5,19.3 c 1.2,0 1.8,-0.6 1.8,-1.8 v -16.3 c 0,-1.2 -0.6,-1.8 -1.8,-1.8 h -2.9 c -1.2,0 -1.8,0.6 -1.8,1.8 v 16.3 c 0,1.2 0.6,1.8 1.8,1.8 h 2.9 z"
           inkscape:connector-curvature="0"
           style="fill:#ffffff" /><path
           id="path3214"
           class="style1"
           d="m 139.9,161.6 c 0.6,0 0.9,0.3 0.9,0.9 v 29.7 c 0,0.6 -0.3,0.9 -0.9,0.9 h -4.2 c -0.6,0 -0.9,-0.3 -0.9,-0.9 v -17.7 h -0.3 l -4.2,17.8 c -0.1,0.5 -0.4,0.8 -1,0.8 h -2.7 c -0.5,0 -0.9,-0.3 -1,-0.8 l -4.2,-17.8 h -0.3 v 17.7 c 0,0.6 -0.3,0.9 -0.9,0.9 h -4.1 c -0.6,0 -0.9,-0.3 -0.9,-0.9 v -29.7 c 0,-0.6 0.3,-0.9 0.9,-0.9 h 5.9 c 0.5,0 0.9,0.3 1,0.8 l 5,20.1 5,-20.1 c 0.1,-0.5 0.5,-0.8 1,-0.8 h 5.9 z"
           inkscape:connector-curvature="0"
           style="fill:#ffffff" /><path
           id="path3216"
           class="style1"
           d="m 163.3,166.8 c 0,0.5 -0.2,0.8 -0.7,0.8 h -11.1 v 6.9 h 8.5 c 0.5,0 0.7,0.3 0.7,0.8 v 4.5 c 0,0.5 -0.3,0.8 -0.7,0.8 h -8.5 v 6.7 h 11.1 c 0.5,0 0.7,0.2 0.7,0.7 v 4.5 c 0,0.5 -0.2,0.7 -0.7,0.7 H 146 c -0.4,0 -0.7,-0.3 -0.7,-0.7 v -30.1 c 0,-0.5 0.3,-0.7 0.7,-0.7 h 16.6 c 0.5,0 0.7,0.3 0.7,0.7 v 4.4 z"
           inkscape:connector-curvature="0"
           style="fill:#ffffff" /><path
           id="path3218"
           class="style1"
           d="m 173.9,187.1 h 8.9 c 0.5,0 0.7,0.3 0.7,0.7 v 4.5 c 0,0.5 -0.2,0.7 -0.7,0.7 h -14.3 c -0.4,0 -0.7,-0.2 -0.7,-0.7 v -30.1 c 0,-0.5 0.3,-0.7 0.7,-0.7 h 4.7 c 0.5,0 0.7,0.3 0.7,0.7 v 24.9 z"
           inkscape:connector-curvature="0"
           style="fill:#ffffff" /><path
           id="path3220"
           class="style1"
           d="m 205.5,166.8 c 0,0.5 -0.2,0.8 -0.7,0.8 h -11.1 v 6.9 h 8.5 c 0.5,0 0.7,0.3 0.7,0.8 v 4.5 c 0,0.5 -0.3,0.8 -0.7,0.8 h -8.5 v 6.7 h 11.1 c 0.5,0 0.7,0.2 0.7,0.7 v 4.5 c 0,0.5 -0.2,0.7 -0.7,0.7 h -16.6 c -0.4,0 -0.7,-0.3 -0.7,-0.7 v -30.1 c 0,-0.5 0.3,-0.7 0.7,-0.7 h 16.6 c 0.5,0 0.7,0.3 0.7,0.7 v 4.4 z"
           inkscape:connector-curvature="0"
           style="fill:#ffffff" /><path
           id="path3222"
           class="style1"
           d="m 220.2,161.6 c 4.2,0 6.5,2.2 6.5,6.5 v 3 c 0,0.5 -0.2,0.7 -0.7,0.7 h -4.5 c -0.5,0 -0.7,-0.3 -0.7,-0.7 v -1.9 c 0,-1.2 -0.6,-1.8 -1.8,-1.8 h -2.5 c -1.1,0 -1.8,0.6 -1.8,1.8 v 3.8 l 10.9,3.5 c 0.8,0.3 1.2,0.8 1.2,1.7 v 8.5 c 0,4.2 -2.2,6.5 -6.5,6.5 h -5 c -4.2,0 -6.5,-2.2 -6.5,-6.5 v -2.9 c 0,-0.5 0.3,-0.7 0.7,-0.7 h 4.5 c 0.5,0 0.7,0.2 0.7,0.7 v 1.9 c 0,1.2 0.7,1.8 1.8,1.8 h 2.4 c 1.2,0 1.8,-0.6 1.8,-1.8 V 181 l -10.8,-3.5 c -0.8,-0.3 -1.2,-0.8 -1.2,-1.7 V 168 c 0,-4.2 2.3,-6.5 6.5,-6.5 h 5 z"
           inkscape:connector-curvature="0"
           style="fill:#ffffff" /><path
           id="path3224"
           class="style1"
           d="m 241.8,161.6 c 4.2,0 6.5,2.2 6.5,6.5 v 3 c 0,0.5 -0.2,0.7 -0.7,0.7 H 243 c -0.5,0 -0.7,-0.3 -0.7,-0.7 v -1.9 c 0,-1.2 -0.6,-1.8 -1.8,-1.8 H 238 c -1.1,0 -1.8,0.6 -1.8,1.8 v 3.8 l 10.9,3.5 c 0.8,0.3 1.2,0.8 1.2,1.7 v 8.5 c 0,4.2 -2.2,6.5 -6.5,6.5 h -5 c -4.2,0 -6.5,-2.2 -6.5,-6.5 v -2.9 c 0,-0.5 0.3,-0.7 0.7,-0.7 h 4.5 c 0.5,0 0.7,0.2 0.7,0.7 v 1.9 c 0,1.2 0.7,1.8 1.8,1.8 h 2.4 c 1.2,0 1.8,-0.6 1.8,-1.8 V 181 l -10.8,-3.5 c -0.8,-0.3 -1.2,-0.8 -1.2,-1.7 V 168 c 0,-4.2 2.3,-6.5 6.5,-6.5 h 5.1 z"
           inkscape:connector-curvature="0"
           style="fill:#ffffff" /></g></g><g
       id="g3226"><g
         id="g3228"><path
           id="path3230"
           class="style1"
           d="m -2.7,112.3 83.1,23.5 83,-23.8 C 163.1,79.5 157.1,34.4 130.2,0.9 113,-20.6 92.6,-30.2 80.1,-30.1 62.9,-30.1 42.1,-13.9 30.2,1.2 3.3,34.8 -2.6,79.8 -2.7,112.3 z"
           inkscape:connector-curvature="0"
           style="fill:#ffffff" /><g
           id="g3232"><g
             id="g3234"><path
               id="path3236"
               class="style2"
               d="m 80.3,140.4 -87.5,-24.8 0,-1.7 c 0,-33.3 5.8,-80.4 33.8,-115.6 18.1,-22.7 39.9,-32.9 53.4,-33 13.6,0 35.4,10.1 53.5,32.7 28.2,35.1 34.1,82.2 34.2,115.6 l 0,1.7 -87.4,25.1 z m -83,-28.2 83.1,23.5 83,-23.8 C 163.1,79.4 157.1,34.3 130.2,0.8 113,-20.7 92.6,-30.3 80.1,-30.2 62.9,-30.2 42.1,-14 30.2,1.1 3.3,34.7 -2.6,79.7 -2.7,112.2 z"
               inkscape:connector-curvature="0"
               style="fill:#999999" /></g></g><g
           id="g3238"><path
             id="path3240"
             class="style3"
             d="m 101.9,22.2 c 0,1.4 -0.8,2.2 -2.1,2.2 l -33,0.1 0,23.6 25,0 c 1.3,0 2.1,0.8 2.1,2.2 l 0,13.8 c 0,1.5 -0.8,2.2 -2.1,2.2 l -25,0 0.1,34.4 c 0,1.4 -0.8,2.2 -2.1,2.2 l -13.9,0 c -1.5,0 -2.1,-0.8 -2.1,-2.2 L 48.6,8.5 c 0,-1.4 0.7,-2.2 2.1,-2.2 l 49,-0.1 c 1.3,0 2.1,0.8 2.1,2.2 l 0.1,13.8 z"
             inkscape:connector-curvature="0"
             style="fill:#ff8f7d" /><path
             id="path3242"
             class="style2"
             d="m 68.6,81.8 c 0,1.2 1,2.2 2.2,2.2 l 19,0 C 91,84 92,83 92,81.8 l 0,-5.7 c 0,-1.2 -1,-2.2 -2.2,-2.2 l -19,0 c -1.2,0 -2.2,1 -2.2,2.2 l 0,5.7 z"
             inkscape:connector-curvature="0"
             style="fill:#999999" /><rect
             id="rect3244"
             class="style2"
             height="11.9"
             width="12.8"
             transform="matrix(1,-0.00174034,0.00174034,1,-0.1687,0.1398)"
             y="91.099998"
             x="73.900002"
             style="fill:#999999" /></g><g
           id="g3246"><path
             id="path3248"
             class="style2"
             d="m 120.5,82.7 c -0.9,-0.7 -2,-1.3 -4.1,-1.9 -1.2,-0.3 -2.8,-0.6 -4.8,-0.7 C 110.5,80 109.3,80 108,80 c 0.2,0 0.3,0 0.5,0 -0.1,0 -0.2,0 -0.4,0 -0.2,0 -0.4,0 -0.6,0 0,0 0,0 0,0 0,0 0,0 0,0 -0.2,0 -0.3,0 -0.5,0 -1.6,0 -3,0.1 -4.3,0.2 l -0.1,-11.5 c 0,-0.3 0,-0.5 0,-0.7 0,-0.3 -0.1,-0.6 -0.2,-0.7 -0.2,-0.3 -0.3,-0.5 -0.6,-0.7 -0.3,-0.2 -0.7,-0.5 -1.4,-0.5 0,0 0,0 0,0 l 0,0 -4.4,0 c -0.6,0 -1.1,0.2 -1.4,0.5 -0.3,0.2 -0.4,0.4 -0.6,0.7 -0.1,0.2 -0.2,0.5 -0.2,0.8 l 0.1,35.5 0.8,0 7.3,0 0.6,0 0.4,0 0,-12.1 c 0,-0.7 0.1,-1.2 0.2,-1.5 0.2,-0.3 0.3,-0.5 0.6,-0.7 0.3,-0.2 0.8,-0.5 1.4,-0.5 l 4.6,0 c 0.7,0 1.1,0.2 1.4,0.5 0.3,0.2 0.4,0.4 0.6,0.7 0.2,0.3 0.2,0.8 0.2,1.5 l 0,12.1 0.4,0 0.6,0 8.3,0 0,-17.8 c 0.1,-1.3 0.3,-2.3 -0.8,-3.1 z"
             inkscape:connector-curvature="0"
             style="fill:#999999" /></g></g></g></g><style
     id="style3288">.style0{opacity:	0.85;}.style1{fill:	#FFFFFF;}.style2{fill:	#999999;}.style3{fill:	#FF8F7D;}</style><g
     id="g3290"
     transform="translate(-863.93965,-446.43765)"><g
       id="g3292"
       class="style0"
       style="opacity:0.85"><g
         id="g3294"><path
           id="path3296"
           class="style1"
           d="m -65.7,162.3 c 0,0.5 -0.3,0.7 -0.7,0.7 h -11.2 v 9 h 8.5 c 0.5,0 0.7,0.3 0.7,0.7 v 4.5 c 0,0.5 -0.3,0.7 -0.7,0.7 h -8.5 v 14.4 c 0,0.5 -0.3,0.7 -0.7,0.7 H -83 c -0.5,0 -0.7,-0.3 -0.7,-0.7 v -34.6 c 0,-0.5 0.2,-0.7 0.7,-0.7 h 16.6 c 0.4,0 0.7,0.3 0.7,0.7 v 4.6 z"
           inkscape:connector-curvature="0"
           style="fill:#ffffff" /><path
           id="path3298"
           class="style1"
           d="m -63,168 c 0,-4.2 2.2,-6.5 6.5,-6.5 h 5 c 4.2,0 6.5,2.2 6.5,6.5 v 18.5 c 0,4.2 -2.2,6.5 -6.5,6.5 h -5 c -4.2,0 -6.5,-2.2 -6.5,-6.5 V 168 z m 10.5,19.3 c 1.2,0 1.8,-0.6 1.8,-1.8 v -16.3 c 0,-1.2 -0.6,-1.8 -1.8,-1.8 h -2.9 c -1.2,0 -1.8,0.6 -1.8,1.8 v 16.3 c 0,1.2 0.6,1.8 1.8,1.8 h 2.9 z"
           inkscape:connector-curvature="0"
           style="fill:#ffffff" /><path
           id="path3300"
           class="style1"
           d="m -22.5,177.1 c 0,2.6 -0.9,4.5 -2.5,5.5 l 2.3,9.7 c 0.1,0.5 -0.1,0.8 -0.6,0.8 h -4.4 c -0.4,0 -0.7,-0.2 -0.8,-0.6 l -2.2,-8.9 h -4 v 8.8 c 0,0.5 -0.3,0.7 -0.7,0.7 h -4.4 c -0.4,0 -0.7,-0.3 -0.7,-0.7 v -30.1 c 0,-0.5 0.3,-0.7 0.7,-0.7 H -29 c 4.2,0 6.5,2.2 6.5,6.5 v 9 z m -7.6,0.7 c 1.2,0 1.8,-0.6 1.8,-1.8 v -6.8 c 0,-1.2 -0.6,-1.8 -1.8,-1.8 h -4.5 v 10.4 h 4.5 z"
           inkscape:connector-curvature="0"
           style="fill:#ffffff" /><path
           id="path3302"
           class="style1"
           d="m 9.6,157.1 c 0.5,0 0.7,0.3 0.7,0.7 v 4.5 c 0,0.5 -0.2,0.7 -0.7,0.7 H 4.4 v 29.3 c 0,0.5 -0.2,0.7 -0.7,0.7 H -1 c -0.5,0 -0.7,-0.2 -0.7,-0.7 V 163 h -5.2 c -0.4,0 -0.7,-0.3 -0.7,-0.7 v -4.5 c 0,-0.5 0.3,-0.7 0.7,-0.7 H 9.6 z"
           inkscape:connector-curvature="0"
           style="fill:#ffffff" /><path
           id="path3304"
           class="style1"
           d="m 25.8,162.3 c 0,-0.5 0.3,-0.7 0.7,-0.7 h 4.6 c 0.5,0 0.8,0.3 0.8,0.7 v 30.1 c 0,0.5 -0.2,0.7 -0.8,0.7 h -4.6 c -0.5,0 -0.7,-0.3 -0.7,-0.7 v -12 H 20 v 12 c 0,0.5 -0.3,0.7 -0.7,0.7 h -4.6 c -0.5,0 -0.8,-0.3 -0.8,-0.7 v -30.1 c 0,-0.5 0.2,-0.7 0.8,-0.7 h 4.6 c 0.4,0 0.7,0.3 0.7,0.7 v 12.1 h 5.8 v -12.1 z"
           inkscape:connector-curvature="0"
           style="fill:#ffffff" /><path
           id="path3306"
           class="style1"
           d="m 54.4,166.8 c 0,0.5 -0.2,0.8 -0.7,0.8 H 42.6 v 6.9 H 51 c 0.5,0 0.7,0.3 0.7,0.8 v 4.5 c 0,0.5 -0.3,0.8 -0.7,0.8 h -8.5 v 6.7 h 11.1 c 0.5,0 0.7,0.2 0.7,0.7 v 4.5 c 0,0.5 -0.2,0.7 -0.7,0.7 H 37.1 c -0.4,0 -0.7,-0.3 -0.7,-0.7 v -30.1 c 0,-0.5 0.3,-0.7 0.7,-0.7 h 16.6 c 0.5,0 0.7,0.3 0.7,0.7 v 4.4 z"
           inkscape:connector-curvature="0"
           style="fill:#ffffff" /><path
           id="path3308"
           class="style1"
           d="m 82.1,157.8 c 0,-0.5 0.3,-0.7 0.7,-0.7 h 4.6 c 0.5,0 0.8,0.3 0.8,0.7 v 34.6 c 0,0.5 -0.2,0.7 -0.8,0.7 h -4.6 c -0.5,0 -0.7,-0.3 -0.7,-0.7 V 178 h -5.8 v 14.3 c 0,0.5 -0.3,0.7 -0.7,0.7 H 71 c -0.5,0 -0.8,-0.3 -0.8,-0.7 v -34.6 c 0,-0.5 0.2,-0.7 0.8,-0.7 h 4.6 c 0.4,0 0.7,0.3 0.7,0.7 V 172 h 5.8 v -14.2 z"
           inkscape:connector-curvature="0"
           style="fill:#ffffff" /><path
           id="path3310"
           class="style1"
           d="m 92.7,168 c 0,-4.2 2.2,-6.5 6.5,-6.5 h 5 c 4.2,0 6.5,2.2 6.5,6.5 v 18.5 c 0,4.2 -2.2,6.5 -6.5,6.5 h -5 c -4.2,0 -6.5,-2.2 -6.5,-6.5 V 168 z m 10.5,19.3 c 1.2,0 1.8,-0.6 1.8,-1.8 v -16.3 c 0,-1.2 -0.6,-1.8 -1.8,-1.8 h -2.9 c -1.2,0 -1.8,0.6 -1.8,1.8 v 16.3 c 0,1.2 0.6,1.8 1.8,1.8 h 2.9 z"
           inkscape:connector-curvature="0"
           style="fill:#ffffff" /><path
           id="path3312"
           class="style1"
           d="m 139.9,161.6 c 0.6,0 0.9,0.3 0.9,0.9 v 29.7 c 0,0.6 -0.3,0.9 -0.9,0.9 h -4.2 c -0.6,0 -0.9,-0.3 -0.9,-0.9 v -17.7 h -0.3 l -4.2,17.8 c -0.1,0.5 -0.4,0.8 -1,0.8 h -2.7 c -0.5,0 -0.9,-0.3 -1,-0.8 l -4.2,-17.8 h -0.3 v 17.7 c 0,0.6 -0.3,0.9 -0.9,0.9 h -4.1 c -0.6,0 -0.9,-0.3 -0.9,-0.9 v -29.7 c 0,-0.6 0.3,-0.9 0.9,-0.9 h 5.9 c 0.5,0 0.9,0.3 1,0.8 l 5,20.1 5,-20.1 c 0.1,-0.5 0.5,-0.8 1,-0.8 h 5.9 z"
           inkscape:connector-curvature="0"
           style="fill:#ffffff" /><path
           id="path3314"
           class="style1"
           d="m 163.3,166.8 c 0,0.5 -0.2,0.8 -0.7,0.8 h -11.1 v 6.9 h 8.5 c 0.5,0 0.7,0.3 0.7,0.8 v 4.5 c 0,0.5 -0.3,0.8 -0.7,0.8 h -8.5 v 6.7 h 11.1 c 0.5,0 0.7,0.2 0.7,0.7 v 4.5 c 0,0.5 -0.2,0.7 -0.7,0.7 H 146 c -0.4,0 -0.7,-0.3 -0.7,-0.7 v -30.1 c 0,-0.5 0.3,-0.7 0.7,-0.7 h 16.6 c 0.5,0 0.7,0.3 0.7,0.7 v 4.4 z"
           inkscape:connector-curvature="0"
           style="fill:#ffffff" /><path
           id="path3316"
           class="style1"
           d="m 173.9,187.1 h 8.9 c 0.5,0 0.7,0.3 0.7,0.7 v 4.5 c 0,0.5 -0.2,0.7 -0.7,0.7 h -14.3 c -0.4,0 -0.7,-0.2 -0.7,-0.7 v -30.1 c 0,-0.5 0.3,-0.7 0.7,-0.7 h 4.7 c 0.5,0 0.7,0.3 0.7,0.7 v 24.9 z"
           inkscape:connector-curvature="0"
           style="fill:#ffffff" /><path
           id="path3318"
           class="style1"
           d="m 205.5,166.8 c 0,0.5 -0.2,0.8 -0.7,0.8 h -11.1 v 6.9 h 8.5 c 0.5,0 0.7,0.3 0.7,0.8 v 4.5 c 0,0.5 -0.3,0.8 -0.7,0.8 h -8.5 v 6.7 h 11.1 c 0.5,0 0.7,0.2 0.7,0.7 v 4.5 c 0,0.5 -0.2,0.7 -0.7,0.7 h -16.6 c -0.4,0 -0.7,-0.3 -0.7,-0.7 v -30.1 c 0,-0.5 0.3,-0.7 0.7,-0.7 h 16.6 c 0.5,0 0.7,0.3 0.7,0.7 v 4.4 z"
           inkscape:connector-curvature="0"
           style="fill:#ffffff" /><path
           id="path3320"
           class="style1"
           d="m 220.2,161.6 c 4.2,0 6.5,2.2 6.5,6.5 v 3 c 0,0.5 -0.2,0.7 -0.7,0.7 h -4.5 c -0.5,0 -0.7,-0.3 -0.7,-0.7 v -1.9 c 0,-1.2 -0.6,-1.8 -1.8,-1.8 h -2.5 c -1.1,0 -1.8,0.6 -1.8,1.8 v 3.8 l 10.9,3.5 c 0.8,0.3 1.2,0.8 1.2,1.7 v 8.5 c 0,4.2 -2.2,6.5 -6.5,6.5 h -5 c -4.2,0 -6.5,-2.2 -6.5,-6.5 v -2.9 c 0,-0.5 0.3,-0.7 0.7,-0.7 h 4.5 c 0.5,0 0.7,0.2 0.7,0.7 v 1.9 c 0,1.2 0.7,1.8 1.8,1.8 h 2.4 c 1.2,0 1.8,-0.6 1.8,-1.8 V 181 l -10.8,-3.5 c -0.8,-0.3 -1.2,-0.8 -1.2,-1.7 V 168 c 0,-4.2 2.3,-6.5 6.5,-6.5 h 5 z"
           inkscape:connector-curvature="0"
           style="fill:#ffffff" /><path
           id="path3322"
           class="style1"
           d="m 241.8,161.6 c 4.2,0 6.5,2.2 6.5,6.5 v 3 c 0,0.5 -0.2,0.7 -0.7,0.7 H 243 c -0.5,0 -0.7,-0.3 -0.7,-0.7 v -1.9 c 0,-1.2 -0.6,-1.8 -1.8,-1.8 H 238 c -1.1,0 -1.8,0.6 -1.8,1.8 v 3.8 l 10.9,3.5 c 0.8,0.3 1.2,0.8 1.2,1.7 v 8.5 c 0,4.2 -2.2,6.5 -6.5,6.5 h -5 c -4.2,0 -6.5,-2.2 -6.5,-6.5 v -2.9 c 0,-0.5 0.3,-0.7 0.7,-0.7 h 4.5 c 0.5,0 0.7,0.2 0.7,0.7 v 1.9 c 0,1.2 0.7,1.8 1.8,1.8 h 2.4 c 1.2,0 1.8,-0.6 1.8,-1.8 V 181 l -10.8,-3.5 c -0.8,-0.3 -1.2,-0.8 -1.2,-1.7 V 168 c 0,-4.2 2.3,-6.5 6.5,-6.5 h 5.1 z"
           inkscape:connector-curvature="0"
           style="fill:#ffffff" /></g></g><g
       id="g3324"><g
         id="g3326"><path
           id="path3328"
           class="style1"
           d="m -2.7,112.3 83.1,23.5 83,-23.8 C 163.1,79.5 157.1,34.4 130.2,0.9 113,-20.6 92.6,-30.2 80.1,-30.1 62.9,-30.1 42.1,-13.9 30.2,1.2 3.3,34.8 -2.6,79.8 -2.7,112.3 z"
           inkscape:connector-curvature="0"
           style="fill:#ffffff" /><g
           id="g3330"><g
             id="g3332"><path
               id="path3334"
               class="style2"
               d="m 80.3,140.4 -87.5,-24.8 0,-1.7 c 0,-33.3 5.8,-80.4 33.8,-115.6 18.1,-22.7 39.9,-32.9 53.4,-33 13.6,0 35.4,10.1 53.5,32.7 28.2,35.1 34.1,82.2 34.2,115.6 l 0,1.7 -87.4,25.1 z m -83,-28.2 83.1,23.5 83,-23.8 C 163.1,79.4 157.1,34.3 130.2,0.8 113,-20.7 92.6,-30.3 80.1,-30.2 62.9,-30.2 42.1,-14 30.2,1.1 3.3,34.7 -2.6,79.7 -2.7,112.2 z"
               inkscape:connector-curvature="0"
               style="fill:#999999" /></g></g><g
           id="g3336"><path
             id="path3338"
             class="style3"
             d="m 101.9,22.2 c 0,1.4 -0.8,2.2 -2.1,2.2 l -33,0.1 0,23.6 25,0 c 1.3,0 2.1,0.8 2.1,2.2 l 0,13.8 c 0,1.5 -0.8,2.2 -2.1,2.2 l -25,0 0.1,34.4 c 0,1.4 -0.8,2.2 -2.1,2.2 l -13.9,0 c -1.5,0 -2.1,-0.8 -2.1,-2.2 L 48.6,8.5 c 0,-1.4 0.7,-2.2 2.1,-2.2 l 49,-0.1 c 1.3,0 2.1,0.8 2.1,2.2 l 0.1,13.8 z"
             inkscape:connector-curvature="0"
             style="fill:#ff8f7d" /><path
             id="path3340"
             class="style2"
             d="m 68.6,81.8 c 0,1.2 1,2.2 2.2,2.2 l 19,0 C 91,84 92,83 92,81.8 l 0,-5.7 c 0,-1.2 -1,-2.2 -2.2,-2.2 l -19,0 c -1.2,0 -2.2,1 -2.2,2.2 l 0,5.7 z"
             inkscape:connector-curvature="0"
             style="fill:#999999" /><rect
             id="rect3342"
             class="style2"
             height="11.9"
             width="12.8"
             transform="matrix(1,-0.00174034,0.00174034,1,-0.1687,0.1398)"
             y="91.099998"
             x="73.900002"
             style="fill:#999999" /></g><g
           id="g3344"><path
             id="path3346"
             class="style2"
             d="m 120.5,82.7 c -0.9,-0.7 -2,-1.3 -4.1,-1.9 -1.2,-0.3 -2.8,-0.6 -4.8,-0.7 C 110.5,80 109.3,80 108,80 c 0.2,0 0.3,0 0.5,0 -0.1,0 -0.2,0 -0.4,0 -0.2,0 -0.4,0 -0.6,0 0,0 0,0 0,0 0,0 0,0 0,0 -0.2,0 -0.3,0 -0.5,0 -1.6,0 -3,0.1 -4.3,0.2 l -0.1,-11.5 c 0,-0.3 0,-0.5 0,-0.7 0,-0.3 -0.1,-0.6 -0.2,-0.7 -0.2,-0.3 -0.3,-0.5 -0.6,-0.7 -0.3,-0.2 -0.7,-0.5 -1.4,-0.5 0,0 0,0 0,0 l 0,0 -4.4,0 c -0.6,0 -1.1,0.2 -1.4,0.5 -0.3,0.2 -0.4,0.4 -0.6,0.7 -0.1,0.2 -0.2,0.5 -0.2,0.8 l 0.1,35.5 0.8,0 7.3,0 0.6,0 0.4,0 0,-12.1 c 0,-0.7 0.1,-1.2 0.2,-1.5 0.2,-0.3 0.3,-0.5 0.6,-0.7 0.3,-0.2 0.8,-0.5 1.4,-0.5 l 4.6,0 c 0.7,0 1.1,0.2 1.4,0.5 0.3,0.2 0.4,0.4 0.6,0.7 0.2,0.3 0.2,0.8 0.2,1.5 l 0,12.1 0.4,0 0.6,0 8.3,0 0,-17.8 c 0.1,-1.3 0.3,-2.3 -0.8,-3.1 z"
             inkscape:connector-curvature="0"
             style="fill:#999999" /></g></g></g></g><flowRoot
     xml:space="preserve"
     id="flowRoot3392"
     style="fill:black;stroke:none;stroke-opacity:1;stroke-width:1px;stroke-linejoin:miter;stroke-linecap:butt;fill-opacity:1;font-family:Elysio;font-style:normal;font-weight:normal;font-size:13px;line-height:125%;letter-spacing:0px;word-spacing:0px;-inkscape-font-specification:Elysio;font-stretch:normal;font-variant:normal"><flowRegion
       id="flowRegion3394"><rect
         id="rect3396"
         width="179.79855"
         height="122.58993"
         x="-284"
         y="-248.83957" /></flowRegion><flowPara
       id="flowPara3398"></flowPara></flowRoot><g
     id="g3404"
     transform="translate(5.2506485,-5.6769574)"><g
       style="fill:#999999"
       transform="matrix(0.81388006,0,0,0.81388006,-545.22913,-161.69482)"
       id="g3384"><g
         style="fill:#999999"
         id="g86"
         transform="matrix(2.1663772,0,0,-2.1663772,354.08724,247.91054)"><path
           inkscape:connector-curvature="0"
           d="m 0,0 -2.794,0 0,4.923 c 0,0.738 -0.599,1.335 -1.335,1.335 -0.737,0 -1.336,-0.597 -1.336,-1.335 l 0,-3.956 -3.056,1.419 0,4.09 L -3.383,8.86 0,8.86 0,0 z m -39.964,-2.347 0,9.287 16.473,0 c 0.737,0 1.335,0.598 1.335,1.335 0,0.738 -0.598,1.335 -1.335,1.335 l -22.606,0 0,2.614 32.728,0 0,-2.614 -4.031,0 c -0.738,0 -1.335,-0.597 -1.335,-1.335 0,-0.737 0.597,-1.335 1.335,-1.335 l 4.031,0 0,-9.287 -26.595,0 z m 41.967,15.212 -5.827,0 c -0.291,0 -0.579,-0.063 -0.843,-0.186 l -4.696,-2.179 0,3.727 c 0,1.106 -0.897,2.002 -2.003,2.002 l -36.734,0 c -1.105,0 -2.002,-0.896 -2.002,-2.002 l 0,-6.728 c 0,-1.106 0.897,-2.002 2.002,-2.002 l 4.131,0 0,-9.847 c 0,-1.106 0.897,-2.003 2.002,-2.003 l 30.601,0 c 1.106,0 2.003,0.897 2.003,2.003 l 0,2.711 4.695,-2.18 c 0.265,-0.122 0.553,-0.186 0.844,-0.186 l 5.827,0 c 1.106,0 2.003,0.897 2.003,2.003 l 0,12.865 c 0,1.106 -0.897,2.002 -2.003,2.002"
           style="fill:#999999;fill-opacity:1;fill-rule:nonzero;stroke:none"
           id="path88" /></g><g
         style="fill:#999999"
         id="g90"
         transform="matrix(2.1663772,0,0,-2.1663772,299.13642,268.31241)"><path
           inkscape:connector-curvature="0"
           d="m 0,0 c -0.748,0.637 -1.849,0.637 -2.597,0 l -6.174,-5.26 c -0.842,-0.717 -0.943,-1.981 -0.226,-2.823 0.719,-0.843 1.982,-0.942 2.823,-0.226 l 4.875,4.154 4.878,-4.154 c 0.377,-0.321 0.839,-0.478 1.298,-0.478 0.566,0 1.129,0.239 1.525,0.704 0.717,0.843 0.616,2.106 -0.226,2.823 L 0,0 z"
           style="fill:#999999;fill-opacity:1;fill-rule:nonzero;stroke:none"
           id="path92" /></g><g
         style="fill:#999999"
         id="g94"
         transform="matrix(2.1663772,0,0,-2.1663772,271.33316,157.37547)"><path
           inkscape:connector-curvature="0"
           d="m 0,0 c 5.254,0 9.529,-4.275 9.529,-9.53 0,-5.255 -4.275,-9.531 -9.529,-9.531 -5.255,0 -9.529,4.276 -9.529,9.531 C -9.529,-4.275 -5.255,0 0,0 m 23.064,0 c 5.256,0 9.531,-4.275 9.531,-9.53 0,-5.255 -4.275,-9.531 -9.531,-9.531 -5.253,0 -9.53,4.276 -9.53,9.531 0,5.255 4.277,9.53 9.53,9.53 M 0,-23.066 c 4.879,0 9.15,2.604 11.531,6.486 2.383,-3.882 6.655,-6.486 11.533,-6.486 7.464,0 13.536,6.072 13.536,13.536 0,7.463 -6.072,13.535 -13.536,13.535 -4.878,0 -9.15,-2.604 -11.533,-6.486 C 9.15,1.401 4.879,4.005 0,4.005 c -7.463,0 -13.535,-6.072 -13.535,-13.535 0,-7.464 6.072,-13.536 13.535,-13.536"
           style="fill:#999999;fill-opacity:1;fill-rule:nonzero;stroke:none"
           id="path96" /></g></g><text
       sodipodi:linespacing="125%"
       id="text3400"
       y="57.635254"
       x="48.059898"
       style="font-size:40px;font-style:normal;font-variant:normal;font-weight:bold;font-stretch:condensed;text-align:start;line-height:125%;letter-spacing:0px;word-spacing:0px;writing-mode:lr-tb;text-anchor:start;fill:#999999;fill-opacity:1;stroke:none;font-family:Roboto Condensed;-inkscape-font-specification:'Roboto Condensed, Bold Condensed'"
       xml:space="preserve"><tspan
         style="font-size:56px;font-style:normal;font-variant:normal;font-weight:bold;font-stretch:condensed;text-align:start;line-height:125%;writing-mode:lr-tb;text-anchor:start;fill:#999999;font-family:Roboto Condensed;-inkscape-font-specification:'Roboto Condensed, Bold Condensed'"
         y="57.635254"
         x="48.059898"
         id="tspan3402"
         sodipodi:role="line">EVENTS</tspan></text>
</g><g
     id="g3447"
     style="fill:#999999"
     transform="matrix(1.4916448,0,0,1.4916448,-34.211603,-135.74757)"><g
       transform="matrix(1.25,0,0,-1.25,-96.488,131.19733)"
       id="g58"
       style="fill:#999999"><path
         id="path60"
         style="fill:#999999;fill-opacity:1;fill-rule:nonzero;stroke:none"
         d="m 0,0 0,19.988 37.351,0 c 0.737,0 1.335,0.597 1.335,1.334 0,0.738 -0.598,1.335 -1.335,1.335 l -37.351,0 0,2.953 49.203,0 0,-2.953 -4.511,0 c -0.736,0 -1.334,-0.597 -1.334,-1.335 0,-0.737 0.598,-1.334 1.334,-1.334 l 4.511,0 L 49.203,0 0,0 z m 54.6,0 -1.393,0 0,27.612 c 0,1.106 -0.896,2.002 -2.002,2.002 l -6.68,0 0,1.624 c 0,0.737 -0.597,1.335 -1.335,1.335 -0.737,0 -1.335,-0.598 -1.335,-1.335 l 0,-1.624 -34.508,0 0,1.624 c 0,0.737 -0.598,1.335 -1.334,1.335 -0.739,0 -1.336,-0.598 -1.336,-1.335 l 0,-1.624 -6.679,0 c -1.105,0 -2.002,-0.896 -2.002,-2.002 L -4.004,0 -5.396,0 c -1.107,0 -2.002,-0.896 -2.002,-2.002 0,-1.105 0.895,-2.002 2.002,-2.002 l 3.394,0 53.207,0 3.395,0 c 1.106,0 2.002,0.897 2.002,2.002 C 56.602,-0.896 55.706,0 54.6,0"
         inkscape:connector-curvature="0" /></g><g
       transform="matrix(1.25,0,0,-1.25,-58.540007,149.5482)"
       id="g70"
       style="fill:#999999"><path
         id="path72"
         style="fill:#999999;fill-opacity:1;fill-rule:nonzero;stroke:none"
         d="m 0,0 -3.755,0 0,5.31 c 0,1.106 -0.895,2.002 -2.002,2.002 -1.106,0 -2.002,-0.896 -2.002,-2.002 l 0,-5.31 -3.754,0 c -1.106,0 -2.002,-0.896 -2.002,-2.002 0,-1.105 0.896,-2.002 2.002,-2.002 l 11.513,0 c 1.105,0 2.002,0.897 2.002,2.002 C 2.002,-0.896 1.105,0 0,0"
         inkscape:connector-curvature="0" /></g></g><g
     id="g3480"
     style="fill:#999999"
     transform="translate(212.79208,-17.503938)"><path
       id="path520"
       style="fill:#999999;fill-opacity:1;fill-rule:nonzero;stroke:none"
       d="m -25.901645,192.77499 -89.782765,0 0,-62.00932 89.782765,0 0,62.00932 z m 0,-69.64311 -89.780865,0 c -4.21496,0 -7.63189,3.41882 -7.63189,7.63379 l 0,62.00932 c 0,4.21496 3.41693,7.62998 7.63189,7.62998 l 2.43223,0 -2.55222,2.55031 c -1.48943,1.49133 -1.48943,3.90832 0,5.39775 1.49134,1.49133 3.90642,1.49133 5.39775,0 l 7.94615,-7.94806 63.333049,0 7.946152,7.94806 c 0.744714,0.74471 1.721794,1.11612 2.698873,1.11612 0.975175,0 1.952255,-0.37141 2.698873,-1.11612 1.489428,-1.48943 1.489428,-3.90642 0,-5.39775 l -2.552215,-2.55031 2.432223,0 c 4.214965,0 7.631887,-3.41502 7.631887,-7.62998 l 0,-62.00932 c 0,-4.21497 -3.416922,-7.63379 -7.631887,-7.63379"
       inkscape:connector-curvature="0" /><g
       transform="matrix(1.9046386,0,0,-1.9046386,-106.80003,174.44208)"
       id="g522"
       style="fill:#999999"><path
         id="path524"
         style="fill:#999999;fill-opacity:1;fill-rule:nonzero;stroke:none"
         d="m 0,0 c 0.737,0 1.336,0.598 1.336,1.336 l 0,15.363 26.473,0 0,-3.451 c 0,-0.738 0.597,-1.336 1.336,-1.336 0.737,0 1.334,0.598 1.334,1.336 l 0,4.786 c 0,0.737 -0.597,1.336 -1.334,1.336 L 0,19.37 c -0.738,0 -1.336,-0.599 -1.336,-1.336 l 0,-16.698 C -1.336,0.598 -0.738,0 0,0"
         inkscape:connector-curvature="0" /></g><g
       transform="matrix(1.9046386,0,0,-1.9046386,-106.80003,185.98891)"
       id="g526"
       style="fill:#999999"><path
         id="path528"
         style="fill:#999999;fill-opacity:1;fill-rule:nonzero;stroke:none"
         d="m 0,0 29.145,0 c 0.737,0 1.334,0.598 1.334,1.336 l 0,11.963 c 0,0.738 -0.597,1.336 -1.334,1.336 -0.739,0 -1.336,-0.598 -1.336,-1.336 l 0,-10.627 L 0,2.672 C -0.738,2.672 -1.336,2.073 -1.336,1.336 -1.336,0.598 -0.738,0 0,0"
         inkscape:connector-curvature="0" /></g><g
       transform="matrix(1.9046386,0,0,-1.9046386,-73.308863,117.31801)"
       id="g530"
       style="fill:#999999"><path
         id="path532"
         style="fill:#999999;fill-opacity:1;fill-rule:nonzero;stroke:none"
         d="m 0,0 c 0.391,-0.392 0.904,-0.588 1.416,-0.588 0.514,0 1.025,0.196 1.417,0.588 l 12.196,12.196 c 0.784,0.783 0.784,2.052 0,2.833 -0.782,0.784 -2.05,0.784 -2.833,0 L 1.416,4.25 -9.363,15.029 c -0.783,0.784 -2.051,0.784 -2.834,0 -0.782,-0.781 -0.782,-2.05 0,-2.833 L 0,0 z"
         inkscape:connector-curvature="0" /></g><g
       transform="matrix(1.9046386,0,0,-1.9046386,-37.157876,142.63614)"
       id="g534"
       style="fill:#999999"><path
         id="path536"
         style="fill:#999999;fill-opacity:1;fill-rule:nonzero;stroke:none"
         d="m 0,0 c 0.736,0 1.336,-0.6 1.336,-1.336 0,-0.736 -0.6,-1.336 -1.336,-1.336 -0.736,0 -1.335,0.6 -1.335,1.336 C -1.335,-0.6 -0.736,0 0,0 m 0,-5.344 c 2.211,0 4.008,1.798 4.008,4.008 0,2.209 -1.797,4.007 -4.008,4.007 -2.209,0 -4.007,-1.798 -4.007,-4.007 0,-2.21 1.798,-4.008 4.007,-4.008"
         inkscape:connector-curvature="0" /></g><g
       transform="matrix(1.9046386,0,0,-1.9046386,-37.157876,158.27322)"
       id="g538"
       style="fill:#999999"><path
         id="path540"
         style="fill:#999999;fill-opacity:1;fill-rule:nonzero;stroke:none"
         d="m 0,0 c -1.26,0 -2.282,-1.022 -2.282,-2.282 0,-1.26 1.022,-2.282 2.282,-2.282 1.261,0 2.282,1.022 2.282,2.282 C 2.282,-1.022 1.261,0 0,0"
         inkscape:connector-curvature="0" /></g></g></svg>