<?xml version="1.0" encoding="utf-8"?>
<!-- Generator: Adobe Illustrator 17.1.0, SVG Export Plug-In . SVG Version: 6.00 Build 0)  -->
<!DOCTYPE svg PUBLIC "-//W3C//DTD SVG 1.1//EN" "http://www.w3.org/Graphics/SVG/1.1/DTD/svg11.dtd">
<svg version="1.1" id="Layer_1" xmlns="http://www.w3.org/2000/svg" xmlns:xlink="http://www.w3.org/1999/xlink" x="0px" y="0px"
	 viewBox="241 489 158 158" enable-background="new 241 489 158 158" xml:space="preserve">
<g>
	<g>
		<path fill="none" d="M327.9,554.8l-0.3,0c-0.4,0-1.3,0-2-0.7c-0.4-0.5-0.7-1.1-0.6-1.8c0-0.8,0-1.7,0.1-2.5c0-1.8,0.1-3.7,0.2-5.5
			c0.2-2.8,1.7-4.2,4.5-4.5c2.2-0.2,4.3-0.2,6.4-0.2l1.6,0c0-1.5,0-3,0-4.5c0-2.3,0-4.5,0-6.8l-0.7,0c-0.8,0-1.6,0-2.4,0
			c-0.8,0-1.6,0-2.4,0c-2.8,0-5.7,0-8.7,0.3c-7.5,0.7-11.9,5.3-12.4,12.9c-0.2,3-0.3,6.3-0.3,10c0,0.8,0.1,1.9-0.6,2.6
			c-0.5,0.5-1,0.8-2,0.8v0c0,0-0.4,0-0.5,0c-0.9-0.1-1.9,0.1-2.9,0.1c-0.7,0-1.6,0.1-2.3,0.1c0,0,0,0,0,0c0,4,0.8,6.9,0.8,11.3
			c0,0,0,0,0,0c1-0.1,2.8,0.3,4.4,0.3c0.7,0,1,0.4,1.8,0.4h1.5l0,12c0,9.4,0,18.5,0,27.8c0,0.2,0,0.2,0,0.3c0.1,0,0.1,0,0.2,0
			c2.4,0,4.7-0.1,7-0.1c2.3,0,4.5,0,6.6,0h0.1c0.1,0,0.2,0.1,0.3,0.1c0-0.1,0-0.2,0-0.5c0-9.4,0-18.9,0-28.1l0-12.2l8.1,0
			c1.1,0,2.3,0,3.4,0c0.1-1.1,0.2-2.2,0.3-3.2c0.1-0.6,0.2-1.2,0.2-1.9c0.2-1.8,0.3-3.5,0.5-5.3l0.1-1c-0.1,0-0.2,0-0.3,0
			C334.1,554.8,331,554.9,327.9,554.8z"/>
		<path fill="#333333" d="M320.4,491.7L320,492h-0.3c-20.3,0-39.3,7.6-53.8,22c-14.5,14.5-22.4,34-22.4,54.3
			c0.1,42.1,34.3,76.7,76.3,76.7h0.3c20.5-1,39.7-8.5,54.1-22.8c14.4-14.4,22.4-33.7,22.4-54.2C396.5,526,362.3,491.7,320.4,491.7z
			 M372,620c-13.8,13.7-32.3,21-52,22h-0.2c-40.3,0-73.2-33.4-73.3-73.8c0-19.5,7.6-37.9,21.5-51.8c13.8-13.8,32.2-21.4,51.6-21.4
			h0.3l0.4-0.3c40.3,0,73.1,33,73.1,73.3C393.5,587.7,385.9,606.2,372,620z"/>
	</g>
	<path fill="none" stroke="#404040" stroke-width="3" stroke-miterlimit="10" d="M309.7,568.4c-2.3,0-4.3,0-6.3,0
		c-1.1,0-1.4-0.4-1.4-1.4c0-3.5,0-7,0-10.4c0-1.1,0.5-1.4,1.4-1.3c1.5,0,3.1-0.1,4.6,0c1.3,0.1,1.7-0.4,1.7-1.7c0-3.1,0-6.2,0.2-9.2
		c0.5-7.6,4.9-12.3,12.6-13.1c4.5-0.4,9.1-0.3,13.6-0.3c0.3,0,0.9,0.6,0.9,1c0.1,3.7,0,7.4,0.1,11c0,1-0.5,1-1.3,1
		c-2.4,0.1-4.9,0.1-7.3,0.3c-1.9,0.1-2.7,0.9-2.9,2.8c-0.2,2.4-0.2,4.9-0.2,7.3c0,1,0.7,0.9,1.3,0.9c2.8,0,5.7,0,8.5,0
		c0.5,0,1.1,0.1,1.8,0.1c-0.2,2.5-0.5,4.8-0.7,7.2c-0.2,1.5-0.4,3.1-0.5,4.6c-0.1,1-0.4,1.3-1.4,1.3c-2.4,0-4.9,0-7.3,0
		c-0.5,0-1.1,0-1.8,0c0,0.7,0,1.3,0,1.9c0,11.2,0,22.4,0,33.6c0,1.4-0.4,1.9-1.8,1.8c-4.1-0.1-8.2-0.1-12.3,0
		c-1.3,0-1.7-0.5-1.7-1.7c0-11.1,0-22.3,0-33.4C309.7,569.9,309.7,569.3,309.7,568.4z"/>
</g>
</svg>
