<?xml version="1.0" encoding="utf-8"?>
<!-- Generator: Adobe Illustrator 18.0.0, SVG Export Plug-In . SVG Version: 6.00 Build 0)  -->
<!DOCTYPE svg PUBLIC "-//W3C//DTD SVG 1.1//EN" "http://www.w3.org/Graphics/SVG/1.1/DTD/svg11.dtd">
<svg version="1.1" id="Layer_1" xmlns="http://www.w3.org/2000/svg" xmlns:xlink="http://www.w3.org/1999/xlink" x="0px" y="0px"
	 viewBox="0 0 63 63" enable-background="new 0 0 63 63" xml:space="preserve">
<g>
	<path fill="#333333" d="M31.5,0.45c-0.041,0-0.082,0.001-0.123,0.003l-0.074,0.002C14.291,0.561,0.45,14.488,0.45,31.5
		c0,17.012,13.841,30.939,30.854,31.045l0.074,0.002c0.041,0.002,0.081,0.003,0.122,0.003c17.121,0,31.05-13.929,31.05-31.05
		C62.55,14.379,48.621,0.45,31.5,0.45z M31.5,61.35l-0.189-0.005C14.956,61.243,1.65,47.855,1.65,31.5
		c0-16.355,13.306-29.744,29.661-29.846L31.5,1.65c16.459,0,29.85,13.391,29.85,29.85C61.35,47.959,47.959,61.35,31.5,61.35z"/>
</g>
<g>
	<path fill="#333333" d="M36.212,33.189c-0.595-0.447-1.183-0.904-1.63-1.511c-0.571-0.776-0.569-1.399,0.007-2.165
		c0.408-0.543,0.948-0.946,1.465-1.375c1.833-1.52,2.641-3.421,2.137-5.805c-0.285-1.351-0.942-2.473-2.095-3.427
		c1.955,0.629,2.858-0.696,3.903-1.951c-3.16,0-6.227-0.029-9.293,0.015c-1.177,0.017-2.331,0.296-3.4,0.824
		c-2.448,1.21-3.722,3.192-3.711,5.918c0.011,2.641,1.205,4.593,3.654,5.686c0.971,0.433,2.009,0.631,3.076,0.644
		c0.259,0.003,0.515-0.005,0.361,0.378c-0.523,1.297-0.209,2.424,0.799,3.465c-0.837,0.061-1.571,0.094-2.3,0.173
		c-1.851,0.2-3.654,0.583-5.196,1.703c-1.891,1.373-2.652,3.257-2.2,5.537c0.369,1.863,1.748,2.924,3.375,3.661
		c2.453,1.111,5.047,1.258,7.681,0.961c1.863-0.21,3.607-0.77,5.097-1.957c2.772-2.209,3.081-6.016,0.715-8.657
		C37.931,34.496,37.075,33.839,36.212,33.189z M30.768,28.638c-2.051-0.564-3.694-2.644-3.953-5.008
		c-0.026-0.238-0.043-0.478-0.072-0.815c-0.006-0.724,0.08-1.531,0.399-2.296c0.909-2.177,3.165-2.841,5.085-1.463
		c1.644,1.18,2.369,2.899,2.653,4.836c0.122,0.835,0.121,1.672-0.112,2.496C34.232,28.286,32.677,29.163,30.768,28.638z
		 M37.218,40.239c-0.171,1.863-1.304,2.966-2.962,3.622c-1.085,0.429-2.221,0.577-3.164,0.571c-1.775,0.019-3.209-0.366-4.452-1.333
		c-2.255-1.756-2.325-4.636-0.168-6.499c2.249-1.942,6.145-2.205,8.611-0.552C36.563,37.04,37.387,38.403,37.218,40.239z"/>
	<path fill="#333333" d="M50.901,21.26c-0.035-0.002-0.061-0.009-0.102-0.008c-0.425,0.012-0.85,0.01-1.275,0.008h-1.797
		c-0.147-0.02-0.239-0.077-0.286-0.192v-4.123h-2.08v4.131c-0.053,0.09-0.134,0.153-0.257,0.183h-0.625
		c-0.498-0.03-1.003-0.003-1.504,0H41.48v2.08h3.833c0.019,0.017,0.034,0.037,0.048,0.058v3.781h2.08v-3.686
		c0.024-0.064,0.063-0.113,0.11-0.153h3.788v-2.08H50.901z"/>
</g>
</svg>
