<?xml version="1.0" encoding="utf-8"?>
<!-- Generator: Adobe Illustrator 17.1.0, SVG Export Plug-In . SVG Version: 6.00 Build 0)  -->
<!DOCTYPE svg PUBLIC "-//W3C//DTD SVG 1.1//EN" "http://www.w3.org/Graphics/SVG/1.1/DTD/svg11.dtd">
<svg version="1.1" id="Layer_1" xmlns="http://www.w3.org/2000/svg" xmlns:xlink="http://www.w3.org/1999/xlink" x="0px" y="0px"
	 viewBox="241 489 158 158" enable-background="new 241 489 158 158" xml:space="preserve">
<g>
	<path fill="none" d="M319.8,587c8.8,0,16-7.2,16-16s-7.2-16-16-16c-8.8,0-16,7.2-16,16S311,587,319.8,587z M314.8,560.7
		c2.1,0,3.8,1.7,3.8,3.8s-1.7,3.8-3.8,3.8c-2.1,0-3.8-1.7-3.8-3.8S312.7,560.7,314.8,560.7z"/>
	<path fill="none" d="M284,550v-18.6c-4,2.9-5,7-5,11.4v53c0,8.5,6.6,15.2,15.2,15.2h52c8.5,0,15.8-6.6,15.8-15.2v-53
		c0-8.5-7.3-15.8-15.8-15.8H298v23H284z M343,534h12v12h-12V534z M319.8,545.7c13.8,0,25,11.2,25,25s-11.2,25-25,25
		c-13.8,0-25-11.2-25-25S306,545.7,319.8,545.7z"/>
	<path fill="none" d="M319.8,593.7c12.7,0,23-10.3,23-23s-10.3-23-23-23s-23,10.3-23,23S307.2,593.7,319.8,593.7z M319.8,553
		c9.9,0,18,8.1,18,18c0,9.9-8.1,18-18,18s-18-8.1-18-18C301.8,561.1,309.9,553,319.8,553z"/>
	<rect x="345" y="536" fill="none" width="8" height="8"/>
	<circle fill="none" cx="314.8" cy="564.5" r="2.8"/>
	<path fill="none" d="M320,494.5c-40.5,0-73.5,33-73.5,73.5c0,40.5,33,73.5,73.5,73.5c40.5,0,73.5-33,73.5-73.5
		C393.5,527.5,360.5,494.5,320,494.5z M283.7,527.6l0.7-0.4C284.1,527.3,283.9,527.5,283.7,527.6L283.7,527.6z M365,595.8
		c0,10.2-8.6,18.2-18.8,18.2h-52c-10.2,0-18.2-8-18.2-18.2v-53c0-6.1,3-11.7,8-15.2c0-0.2,0.5-0.3,0.7-0.5c0.3-0.2,0.5-0.3,0.8-0.5
		l1.5-0.9v0.2v3.4v0V547h8v-20v-3h3h48.2c10.2,0,18.8,8.6,18.8,18.8V595.8z"/>
	<path fill="#333333" d="M314.8,568.3c2.1,0,3.8-1.7,3.8-3.8s-1.7-3.8-3.8-3.8c-2.1,0-3.8,1.7-3.8,3.8S312.7,568.3,314.8,568.3z
		 M314.8,561.7c1.6,0,2.8,1.3,2.8,2.8s-1.3,2.8-2.8,2.8c-1.6,0-2.8-1.3-2.8-2.8S313.2,561.7,314.8,561.7z"/>
	<path fill="#333333" d="M319.8,589c9.9,0,18-8.1,18-18c0-9.9-8.1-18-18-18s-18,8.1-18,18C301.8,580.9,309.9,589,319.8,589z
		 M319.8,555c8.8,0,16,7.2,16,16s-7.2,16-16,16c-8.8,0-16-7.2-16-16S311,555,319.8,555z"/>
	<path fill="#333333" d="M319.8,595.7c13.8,0,25-11.2,25-25s-11.2-25-25-25c-13.8,0-25,11.2-25,25S306,595.7,319.8,595.7z
		 M319.8,547.7c12.7,0,23,10.3,23,23s-10.3,23-23,23s-23-10.3-23-23S307.2,547.7,319.8,547.7z"/>
	<path fill="#333333" d="M287,525.7l-1.5,0.9c0.4-0.3,0.9-0.5,1.5-0.7V525.7z"/>
	<path fill="#333333" d="M283.7,527.6L283.7,527.6c0.2-0.1,0.5-0.3,0.7-0.4L283.7,527.6z"/>
	<path fill="#333333" d="M346.2,524H298h-3v3v20h-8v-17.7v0v-3.4c-0.6,0.2-1.1,0.5-1.5,0.7c-0.3,0.2-0.5,0.3-0.8,0.5
		c-0.2,0.2-0.7,0.3-0.7,0.5c-5,3.5-8,9.1-8,15.2v53c0,10.2,8,18.2,18.2,18.2h52c10.2,0,18.8-8,18.8-18.2v-53
		C365,532.6,356.4,524,346.2,524z M362,595.8c0,8.5-7.3,15.2-15.8,15.2h-52c-8.5,0-15.2-6.6-15.2-15.2v-53c0-4.4,1-8.5,5-11.4V550
		h14v-23h48.2c8.5,0,15.8,7.3,15.8,15.8V595.8z"/>
	<path fill="#333333" d="M355,534h-12v12h12V534z M353,544h-8v-8h8V544z"/>
	<path fill="#333333" d="M320,491.5c-42.2,0-76.5,34.3-76.5,76.5c0,42.2,34.3,76.5,76.5,76.5c42.2,0,76.5-34.3,76.5-76.5
		C396.5,525.8,362.2,491.5,320,491.5z M320,641.5c-40.5,0-73.5-33-73.5-73.5c0-40.5,33-73.5,73.5-73.5c40.5,0,73.5,33,73.5,73.5
		C393.5,608.5,360.5,641.5,320,641.5z"/>
</g>
</svg>
