<?xml version="1.0" encoding="UTF-8" standalone="no"?>
<!-- Generator: Adobe Illustrator 18.0.0, SVG Export Plug-In . SVG Version: 6.00 Build 0)  -->

<svg
   xmlns:dc="http://purl.org/dc/elements/1.1/"
   xmlns:cc="http://creativecommons.org/ns#"
   xmlns:rdf="http://www.w3.org/1999/02/22-rdf-syntax-ns#"
   xmlns:svg="http://www.w3.org/2000/svg"
   xmlns="http://www.w3.org/2000/svg"
   xmlns:sodipodi="http://sodipodi.sourceforge.net/DTD/sodipodi-0.dtd"
   xmlns:inkscape="http://www.inkscape.org/namespaces/inkscape"
   version="1.1"
   id="Layer_1"
   x="0px"
   y="0px"
   viewBox="0 0 533.88382 260.58227"
   enable-background="new 0 0 428 500"
   xml:space="preserve"
   inkscape:version="0.48.4 r9939"
   width="100%"
   height="100%"
   sodipodi:docname="takeone_logo-old.svg"><metadata
     id="metadata43"><rdf:RDF><cc:Work
         rdf:about=""><dc:format>image/svg+xml</dc:format><dc:type
           rdf:resource="http://purl.org/dc/dcmitype/StillImage" /><dc:title></dc:title></cc:Work></rdf:RDF></metadata><defs
     id="defs41" /><sodipodi:namedview
     pagecolor="#ffffff"
     bordercolor="#666666"
     borderopacity="1"
     objecttolerance="10"
     gridtolerance="10"
     guidetolerance="10"
     inkscape:pageopacity="0"
     inkscape:pageshadow="2"
     inkscape:window-width="1366"
     inkscape:window-height="705"
     id="namedview39"
     showgrid="false"
     width="640px"
     showguides="true"
     inkscape:guide-bbox="true"
     inkscape:snap-to-guides="false"
     inkscape:snap-grids="false"
     inkscape:zoom="0.70710678"
     inkscape:cx="295.24729"
     inkscape:cy="207.35607"
     inkscape:window-x="0"
     inkscape:window-y="28"
     inkscape:window-maximized="1"
     inkscape:current-layer="g5103"
     fit-margin-top="0"
     fit-margin-left="0"
     fit-margin-right="0"
     fit-margin-bottom="0"><sodipodi:guide
       orientation="1,0"
       position="293.50181,750.37218"
       id="guide3835" /><sodipodi:guide
       orientation="1,0"
       position="35.272742,695.59031"
       id="guide3837" /></sodipodi:namedview><g
     id="g3"
     transform="translate(-75.956068,-184.21355)"><g
       id="g3845"
       transform="translate(10.22615,-33.874122)"><g
         id="g3993"
         transform="matrix(1.7227711,0,0,1.7227711,1730.4046,795.6467)"><g
           transform="translate(-1051.7536,-8.2828522)"
           id="g3856" /><g
           id="g4051"><g
             id="g5103"><text
               transform="translate(-1051.7536,-8.282852)"
               sodipodi:linespacing="125%"
               id="text3839"
               y="-246.6747"
               x="110.10523"
               style="font-size:13px;font-style:normal;font-variant:normal;font-weight:normal;font-stretch:normal;line-height:125%;letter-spacing:0px;word-spacing:0px;fill:#000000;fill-opacity:1;stroke:none;font-family:Elysio;-inkscape-font-specification:Elysio"
               xml:space="preserve"><tspan
                 style="font-size:76px;font-style:normal;font-variant:normal;font-weight:normal;font-stretch:normal;font-family:Cabin;-inkscape-font-specification:Cabin"
                 y="-246.6747"
                 x="110.10523"
                 id="tspan3841"
                 sodipodi:role="line">take</tspan></text>
<g
               transform="translate(-1051.7536,-8.282852)"
               style="font-size:13px;font-style:normal;font-variant:normal;font-weight:normal;font-stretch:normal;line-height:125%;letter-spacing:0px;word-spacing:0px;fill:#ffffff;fill-opacity:1;stroke:none;font-family:Elysio;-inkscape-font-specification:Elysio"
               id="text3020"><path
                 d="m 134.30852,-251.49215 -0.532,5.472 -6.156,0 c -3.29335,0 -5.75068,-0.86133 -7.372,-2.584 -1.57068,-1.72266 -2.35601,-3.82533 -2.356,-6.308 l 0,-23.788 -6.384,0 0.608,-5.32 5.776,0 0,-9.196 6.84,-0.684 0,9.88 9.804,0 0,5.32 -9.804,0 0,19.608 c -2e-5,1.77334 0.0507,3.16667 0.152,4.18 0.10132,1.01334 0.37998,1.77334 0.836,2.28 0.50665,0.50667 1.29198,0.836 2.356,0.988 1.06398,0.10134 2.55864,0.152 4.484,0.152 l 1.748,0"
                 style="font-weight:normal;line-height:125%;fill:#e6e6e6;font-family:Cabin;-inkscape-font-specification:Cabin"
                 id="path5153" /><path
                 d="m 171.69221,-251.49215 -1.064,5.472 -0.532,0 c -1.52004,0 -2.7867,-0.10134 -3.8,-0.304 -1.01337,-0.152 -1.8747,-0.43067 -2.584,-0.836 -0.70936,-0.456 -1.31736,-1.03867 -1.824,-1.748 -0.45603,-0.70933 -0.91203,-1.57066 -1.368,-2.584 -3.14136,3.648 -6.94136,5.472 -11.4,5.472 -3.49601,0 -6.28268,-0.988 -8.36,-2.964 -2.07734,-2.02666 -3.11601,-4.63599 -3.116,-7.828 -10e-6,-2.58399 0.68399,-4.71199 2.052,-6.384 1.41866,-1.67198 3.19199,-3.01465 5.32,-4.028 2.17865,-1.01331 4.58532,-1.72265 7.22,-2.128 2.63464,-0.45598 5.19331,-0.70931 7.676,-0.76 -3e-5,-3.34397 -0.65869,-5.59864 -1.976,-6.764 -1.26669,-1.21597 -3.31869,-1.82397 -6.156,-1.824 -3.24268,3e-5 -6.51068,1.1147 -9.804,3.344 l -0.988,-5.548 c 3.34399,-2.58396 7.54932,-3.87596 12.616,-3.876 2.38131,4e-5 4.40797,0.32937 6.08,0.988 1.67197,0.60804 3.01464,1.62137 4.028,3.04 1.06397,1.36803 1.82397,3.19203 2.28,5.472 0.50663,2.28002 0.75996,5.06669 0.76,8.36 l 0,7.6 c -4e-5,2.93867 0.2533,4.99067 0.76,6.156 0.50663,1.11467 1.67196,1.672 3.496,1.672 l 0.684,0 m -11.78,-5.016 0,-8.892 c -5.47202,0.20268 -9.39869,0.93735 -11.78,2.204 -2.33068,1.21601 -3.49601,3.21735 -3.496,6.004 -1e-5,3.80001 1.92532,5.7 5.776,5.7 1.82398,0 3.57198,-0.456 5.244,-1.368 1.72264,-0.91199 3.14131,-2.12799 4.256,-3.648"
                 style="font-weight:normal;line-height:125%;fill:#e6e6e6;font-family:Cabin;-inkscape-font-specification:Cabin"
                 id="path5155" /><path
                 d="m 183.73583,-246.78015 -6.84,0 0,-57 6.84,0 0,36.556 13.68,-16.796 8.36,0 -15.352,17.176 15.732,20.064 -8.36,0 -14.06,-18.924 0,18.924"
                 style="font-weight:normal;line-height:125%;fill:#e6e6e6;font-family:Cabin;-inkscape-font-specification:Cabin"
                 id="path5157" /><path
                 d="m 241.02321,-265.40015 -26.98,0 c 0.81065,8.86668 5.47198,13.3 13.984,13.3 3.79997,0 7.37196,-0.73466 10.716,-2.204 l 0.912,5.396 c -4.40803,1.92533 -8.5627,2.888 -12.464,2.888 -3.14136,0 -5.97869,-0.50667 -8.512,-1.52 -2.48268,-1.01333 -4.58535,-2.38133 -6.308,-4.104 -1.72268,-1.77333 -3.04001,-3.85066 -3.952,-6.232 -0.91201,-2.43199 -1.36801,-5.04132 -1.368,-7.828 -1e-5,-2.68531 0.43066,-5.19331 1.292,-7.524 0.86132,-2.33064 2.07732,-4.33197 3.648,-6.004 1.57065,-1.72263 3.47065,-3.0653 5.7,-4.028 2.27998,-1.0133 4.81331,-1.51996 7.6,-1.52 2.38131,4e-5 4.55997,0.3547 6.536,1.064 1.97597,0.70937 3.64796,1.74803 5.016,3.116 1.41863,1.36803 2.50796,3.04003 3.268,5.016 0.81063,1.92536 1.21596,4.10402 1.216,6.536 -4e-5,1.41869 -0.10137,2.63468 -0.304,3.648 m -15.884,-13.3 c -5.52269,3e-5 -9.01868,2.86269 -10.488,8.588 l 19.608,0 c -3e-5,-2.73598 -0.76003,-4.83864 -2.28,-6.308 -1.52003,-1.51997 -3.80003,-2.27997 -6.84,-2.28"
                 style="font-weight:normal;line-height:125%;fill:#e6e6e6;font-family:Cabin;-inkscape-font-specification:Cabin"
                 id="path5159" /><path
                 d="m 280.92583,-251.72015 c -3.44536,3.8 -8.10669,5.7 -13.984,5.7 -2.93868,0 -5.59868,-0.50667 -7.98,-1.52 -2.33068,-1.01333 -4.33201,-2.40666 -6.004,-4.18 -1.67201,-1.77333 -2.964,-3.85066 -3.876,-6.232 -0.912,-2.38132 -1.368,-4.96532 -1.368,-7.752 0,-2.73598 0.456,-5.29464 1.368,-7.676 0.912,-2.43197 2.20399,-4.53464 3.876,-6.308 1.67199,-1.7733 3.67332,-3.16663 6.004,-4.18 2.38132,-1.0133 5.04132,-1.51996 7.98,-1.52 2.93864,4e-5 5.59864,0.53204 7.98,1.596 2.3813,1.01337 4.40797,2.4067 6.08,4.18 1.67196,1.77336 2.93863,3.85069 3.8,6.232 0.91196,2.38136 1.36796,4.94002 1.368,7.676 -4e-5,5.52268 -1.74804,10.18401 -5.244,13.984 m -6.992,-22.648 c -1.67203,-2.17864 -4.00269,-3.26797 -6.992,-3.268 -3.04002,3e-5 -5.39602,1.08936 -7.068,3.268 -1.67201,2.17869 -2.50801,5.06669 -2.508,8.664 -1e-5,3.59735 0.83599,6.48534 2.508,8.664 1.67198,2.17867 4.02798,3.26801 7.068,3.268 3.03998,1e-5 5.39597,-1.11466 7.068,-3.344 1.67197,-2.22932 2.50797,-5.09199 2.508,-8.588 -3e-5,-3.59731 -0.86136,-6.48531 -2.584,-8.664"
                 style="letter-spacing:1px;fill:#e6e6e6"
                 id="path5161" /><path
                 d="m 327.25983,-246.78015 -9.424,0 0,-20.444 c -3e-5,-3.54664 -0.60803,-6.15597 -1.824,-7.828 -1.16536,-1.72264 -3.06536,-2.58397 -5.7,-2.584 -2.88802,3e-5 -5.26935,1.08936 -7.144,3.268 l 0,27.588 -9.424,0 0,-38 8.816,0 0.152,2.28 c 2.68532,-1.9253 5.47198,-2.88796 8.36,-2.888 10.79197,4e-5 16.18796,6.0547 16.188,18.164 l 0,20.444"
                 style="letter-spacing:1px;fill:#e6e6e6"
                 id="path5163" /><path
                 d="m 368.82364,-263.72815 -24.548,0 c 0.50666,3.29335 1.82399,5.77601 3.952,7.448 2.17865,1.67201 4.63598,2.50801 7.372,2.508 0.86131,1e-5 1.79864,-0.076 2.812,-0.228 1.01331,-0.15199 2.02664,-0.35466 3.04,-0.608 1.06397,-0.30399 2.10264,-0.63333 3.116,-0.988 1.0133,-0.40533 1.9253,-0.83599 2.736,-1.292 l 0.456,7.98 c -3.6987,1.92533 -7.92936,2.888 -12.692,2.888 -3.34402,0 -6.30801,-0.50667 -8.892,-1.52 -2.53334,-1.01333 -4.68667,-2.38133 -6.46,-4.104 -1.72267,-1.77333 -3.04,-3.85066 -3.952,-6.232 -0.86133,-2.43199 -1.292,-5.04132 -1.292,-7.828 0,-2.73598 0.40533,-5.29464 1.216,-7.676 0.86133,-2.38131 2.07733,-4.45864 3.648,-6.232 1.57066,-1.82397 3.47066,-3.24263 5.7,-4.256 2.27999,-1.0133 4.83865,-1.51996 7.676,-1.52 2.38131,4e-5 4.58531,0.40537 6.612,1.216 2.07731,0.76004 3.85064,1.8747 5.32,3.344 1.51997,1.4187 2.6853,3.14136 3.496,5.168 0.8613,2.02669 1.29197,4.28136 1.292,6.764 -3e-5,1.41869 -0.2027,3.14135 -0.608,5.168 m -24.32,-6.384 15.352,0 c -2e-5,-1.97598 -0.55736,-3.72397 -1.672,-5.244 -1.11469,-1.51997 -2.83735,-2.27997 -5.168,-2.28 -2.33068,3e-5 -4.20535,0.68403 -5.624,2.052 -1.41868,1.36803 -2.38134,3.19202 -2.888,5.472"
                 style="letter-spacing:1px;fill:#e6e6e6"
                 id="path5165" /></g><text
               transform="translate(-1051.7536,-8.282852)"
               sodipodi:linespacing="125%"
               id="text3035"
               y="-206.34637"
               x="109.90466"
               style="font-size:56px;font-style:normal;font-variant:normal;font-weight:normal;font-stretch:normal;line-height:125%;letter-spacing:0px;word-spacing:0px;fill:#ffffff;fill-opacity:1;stroke:none;font-family:Lato;-inkscape-font-specification:Lato"
               xml:space="preserve"><tspan
                 dx="0 0 0 0 0 0 0 0 2.5 1"
                 style="font-size:31px;font-style:normal;font-variant:normal;font-weight:normal;font-stretch:normal;text-align:start;line-height:125%;letter-spacing:-1px;word-spacing:1.5px;writing-mode:lr-tb;text-anchor:start;fill:#e6e6e6;font-family:Droid Sans;-inkscape-font-specification:Droid Sans"
                 y="-206.34637"
                 x="109.90466"
                 id="tspan3037"
                 sodipodi:role="line">a production house</tspan></text>
<g
               transform="matrix(1,0,0,-1,-1e-4,-519.24498)"
               id="g3888"><g
                 style="stroke:#4d4d4d"
                 id="g3935"><g
                   style="stroke:#4d4d4d"
                   id="g3896"
                   transform="matrix(-1,0,0,-1,-1622.6602,-519.24497)"><g
                     style="stroke:#4d4d4d"
                     id="g3904"><path
                       inkscape:connector-curvature="0"
                       id="path3898"
                       d="m -964.78735,-333.75638 c 0,44.01134 0,44.01134 0,44.01134"
                       style="fill:#ff0000;stroke:#4d4d4d;stroke-width:3;stroke-linecap:butt;stroke-linejoin:miter;stroke-miterlimit:0;stroke-opacity:1;stroke-dasharray:none" /><path
                       style="fill:#ff0000;stroke:#4d4d4d;stroke-width:3;stroke-linecap:butt;stroke-linejoin:miter;stroke-miterlimit:0;stroke-opacity:1;stroke-dasharray:none"
                       d="m -920.77603,-333.75638 c -44.01132,0 -44.01132,0 -44.01132,0"
                       id="path3900"
                       inkscape:connector-curvature="0" /><path
                       style="fill:#ff0000;stroke:#4d4d4d;stroke-width:3;stroke-linecap:butt;stroke-linejoin:miter;stroke-miterlimit:0;stroke-opacity:1;stroke-dasharray:none"
                       d="m -964.79126,-335.25639 c 0,44.01135 0,44.01135 0,44.01135"
                       id="path3902"
                       inkscape:connector-curvature="0" /></g><g
                     style="stroke:#4d4d4d"
                     id="g3909"><path
                       style="fill:#ff0000;stroke:#4d4d4d;stroke-width:3;stroke-linecap:butt;stroke-linejoin:miter;stroke-miterlimit:0;stroke-opacity:1;stroke-dasharray:none"
                       d="m -964.78735,-333.75638 c 0,44.01134 0,44.01134 0,44.01134"
                       id="path3911"
                       inkscape:connector-curvature="0" /><path
                       inkscape:connector-curvature="0"
                       id="path3913"
                       d="m -920.77603,-333.75638 c -44.01132,0 -44.01132,0 -44.01132,0"
                       style="fill:#ff0000;stroke:#4d4d4d;stroke-width:3;stroke-linecap:butt;stroke-linejoin:miter;stroke-miterlimit:0;stroke-opacity:1;stroke-dasharray:none" /><path
                       inkscape:connector-curvature="0"
                       id="path3915"
                       d="m -964.79126,-335.25639 c 0,44.01135 0,44.01135 0,44.01135"
                       style="fill:#ff0000;stroke:#4d4d4d;stroke-width:3;stroke-linecap:butt;stroke-linejoin:miter;stroke-miterlimit:0;stroke-opacity:1;stroke-dasharray:none" /></g></g><g
                   style="stroke:#4d4d4d"
                   transform="matrix(1,0,0,-1,0.00400648,-519.24497)"
                   id="g3917"><g
                     style="stroke:#4d4d4d"
                     id="g3919"><path
                       style="fill:#ff0000;stroke:#4d4d4d;stroke-width:3;stroke-linecap:butt;stroke-linejoin:miter;stroke-miterlimit:0;stroke-opacity:1;stroke-dasharray:none"
                       d="m -964.78735,-333.75638 c 0,44.01134 0,44.01134 0,44.01134"
                       id="path3921"
                       inkscape:connector-curvature="0" /><path
                       inkscape:connector-curvature="0"
                       id="path3923"
                       d="m -920.77603,-333.75638 c -44.01132,0 -44.01132,0 -44.01132,0"
                       style="fill:#ff0000;stroke:#4d4d4d;stroke-width:3;stroke-linecap:butt;stroke-linejoin:miter;stroke-miterlimit:0;stroke-opacity:1;stroke-dasharray:none" /><path
                       inkscape:connector-curvature="0"
                       id="path3925"
                       d="m -964.79126,-335.25639 c 0,44.01135 0,44.01135 0,44.01135"
                       style="fill:#ff0000;stroke:#4d4d4d;stroke-width:3;stroke-linecap:butt;stroke-linejoin:miter;stroke-miterlimit:0;stroke-opacity:1;stroke-dasharray:none" /></g><g
                     style="stroke:#4d4d4d"
                     id="g3927"><path
                       inkscape:connector-curvature="0"
                       id="path3929"
                       d="m -964.78735,-333.75638 c 0,44.01134 0,44.01134 0,44.01134"
                       style="fill:#ff0000;stroke:#4d4d4d;stroke-width:3;stroke-linecap:butt;stroke-linejoin:miter;stroke-miterlimit:0;stroke-opacity:1;stroke-dasharray:none" /><path
                       style="fill:#ff0000;stroke:#4d4d4d;stroke-width:3;stroke-linecap:butt;stroke-linejoin:miter;stroke-miterlimit:0;stroke-opacity:1;stroke-dasharray:none"
                       d="m -920.77603,-333.75638 c -44.01132,0 -44.01132,0 -44.01132,0"
                       id="path3931"
                       inkscape:connector-curvature="0" /><path
                       style="fill:#ff0000;stroke:#4d4d4d;stroke-width:3;stroke-linecap:butt;stroke-linejoin:miter;stroke-miterlimit:0;stroke-opacity:1;stroke-dasharray:none"
                       d="m -964.79126,-335.25639 c 0,44.01135 0,44.01135 0,44.01135"
                       id="path3933"
                       inkscape:connector-curvature="0" /></g></g></g><g
                 style="stroke:#4d4d4d"
                 transform="matrix(1,0,0,-1,0,-519.24757)"
                 id="g3955"><g
                   style="stroke:#4d4d4d"
                   transform="matrix(-1,0,0,-1,-1622.6602,-519.24497)"
                   id="g3957"><g
                     style="stroke:#4d4d4d"
                     id="g3959"><path
                       style="fill:#ff0000;stroke:#4d4d4d;stroke-width:3;stroke-linecap:butt;stroke-linejoin:miter;stroke-miterlimit:0;stroke-opacity:1;stroke-dasharray:none"
                       d="m -964.78735,-333.75638 c 0,44.01134 0,44.01134 0,44.01134"
                       id="path3961"
                       inkscape:connector-curvature="0" /><path
                       inkscape:connector-curvature="0"
                       id="path3963"
                       d="m -920.77603,-333.75638 c -44.01132,0 -44.01132,0 -44.01132,0"
                       style="fill:#ff0000;stroke:#4d4d4d;stroke-width:3;stroke-linecap:butt;stroke-linejoin:miter;stroke-miterlimit:0;stroke-opacity:1;stroke-dasharray:none" /><path
                       inkscape:connector-curvature="0"
                       id="path3965"
                       d="m -964.79126,-335.25639 c 0,44.01135 0,44.01135 0,44.01135"
                       style="fill:#ff0000;stroke:#4d4d4d;stroke-width:3;stroke-linecap:butt;stroke-linejoin:miter;stroke-miterlimit:0;stroke-opacity:1;stroke-dasharray:none" /></g><g
                     style="stroke:#4d4d4d"
                     id="g3967"><path
                       inkscape:connector-curvature="0"
                       id="path3969"
                       d="m -964.78735,-333.75638 c 0,44.01134 0,44.01134 0,44.01134"
                       style="fill:#ff0000;stroke:#4d4d4d;stroke-width:3;stroke-linecap:butt;stroke-linejoin:miter;stroke-miterlimit:0;stroke-opacity:1;stroke-dasharray:none" /><path
                       style="fill:#ff0000;stroke:#4d4d4d;stroke-width:3;stroke-linecap:butt;stroke-linejoin:miter;stroke-miterlimit:0;stroke-opacity:1;stroke-dasharray:none"
                       d="m -920.77603,-333.75638 c -44.01132,0 -44.01132,0 -44.01132,0"
                       id="path3971"
                       inkscape:connector-curvature="0" /><path
                       style="fill:#ff0000;stroke:#4d4d4d;stroke-width:3;stroke-linecap:butt;stroke-linejoin:miter;stroke-miterlimit:0;stroke-opacity:1;stroke-dasharray:none"
                       d="m -964.79126,-335.25639 c 0,44.01135 0,44.01135 0,44.01135"
                       id="path3973"
                       inkscape:connector-curvature="0" /></g></g><g
                   style="stroke:#4d4d4d"
                   id="g3975"
                   transform="matrix(1,0,0,-1,0.00400648,-519.24497)"><g
                     style="stroke:#4d4d4d"
                     id="g3977"><path
                       inkscape:connector-curvature="0"
                       id="path3979"
                       d="m -964.78735,-333.75638 c 0,44.01134 0,44.01134 0,44.01134"
                       style="fill:#ff0000;stroke:#4d4d4d;stroke-width:3;stroke-linecap:butt;stroke-linejoin:miter;stroke-miterlimit:0;stroke-opacity:1;stroke-dasharray:none" /><path
                       style="fill:#ff0000;stroke:#4d4d4d;stroke-width:3;stroke-linecap:butt;stroke-linejoin:miter;stroke-miterlimit:0;stroke-opacity:1;stroke-dasharray:none"
                       d="m -920.77603,-333.75638 c -44.01132,0 -44.01132,0 -44.01132,0"
                       id="path3981"
                       inkscape:connector-curvature="0" /><path
                       style="fill:#ff0000;stroke:#4d4d4d;stroke-width:3;stroke-linecap:butt;stroke-linejoin:miter;stroke-miterlimit:0;stroke-opacity:1;stroke-dasharray:none"
                       d="m -964.79126,-335.25639 c 0,44.01135 0,44.01135 0,44.01135"
                       id="path3983"
                       inkscape:connector-curvature="0" /></g><g
                     style="stroke:#4d4d4d"
                     id="g3985"><path
                       style="fill:#ff0000;stroke:#4d4d4d;stroke-width:3;stroke-linecap:butt;stroke-linejoin:miter;stroke-miterlimit:0;stroke-opacity:1;stroke-dasharray:none"
                       d="m -964.78735,-333.75638 c 0,44.01134 0,44.01134 0,44.01134"
                       id="path3987"
                       inkscape:connector-curvature="0" /><path
                       inkscape:connector-curvature="0"
                       id="path3989"
                       d="m -920.77603,-333.75638 c -44.01132,0 -44.01132,0 -44.01132,0"
                       style="fill:#ff0000;stroke:#4d4d4d;stroke-width:3;stroke-linecap:butt;stroke-linejoin:miter;stroke-miterlimit:0;stroke-opacity:1;stroke-dasharray:none" /><path
                       inkscape:connector-curvature="0"
                       id="path3991"
                       d="m -964.79126,-335.25639 c 0,44.01135 0,44.01135 0,44.01135"
                       style="fill:#ff0000;stroke:#4d4d4d;stroke-width:3;stroke-linecap:butt;stroke-linejoin:miter;stroke-miterlimit:0;stroke-opacity:1;stroke-dasharray:none" /></g></g></g></g></g><flowRoot
             xml:space="preserve"
             id="flowRoot5095"
             style="font-size:13px;font-style:normal;font-variant:normal;font-weight:normal;font-stretch:normal;line-height:125%;letter-spacing:0px;word-spacing:0px;fill:#000000;fill-opacity:1;stroke:none;font-family:Elysio;-inkscape-font-specification:Elysio"
             transform="matrix(0.58046017,0,0,0.58046017,-1010.3668,-395.74182)"><flowRegion
               id="flowRegion5097"><rect
                 id="rect5099"
                 width="626"
                 height="407"
                 x="49"
                 y="69" /></flowRegion><flowPara
               id="flowPara5101"></flowPara></flowRoot></g></g></g></g></svg>