<?xml version="1.0" encoding="utf-8"?>
<!-- Generator: Adobe Illustrator 17.1.0, SVG Export Plug-In . SVG Version: 6.00 Build 0)  -->
<!DOCTYPE svg PUBLIC "-//W3C//DTD SVG 1.1//EN" "http://www.w3.org/Graphics/SVG/1.1/DTD/svg11.dtd">
<svg version="1.1" id="Layer_1" xmlns="http://www.w3.org/2000/svg" xmlns:xlink="http://www.w3.org/1999/xlink" x="0px" y="0px"
	 viewBox="0 0 155 155" enable-background="new 0 0 155 155" xml:space="preserve">
<g>
	<g>
		<path fill="#333333" d="M77.5,154C35.3,154,1,119.7,1,77.5C1,35.3,35.3,1,77.5,1S154,35.3,154,77.5C154,119.7,119.7,154,77.5,154z
			 M77.5,4C37,4,4,37,4,77.5C4,118,37,151,77.5,151S151,118,151,77.5C151,37,118,4,77.5,4z M86.8,119.5h-2.6c-1.3,0-2.6-0.3-3.8-0.5
			l-0.7-0.1c-4.3-0.8-8.1-2.5-11.2-4.9c-4.1-3.2-6.3-7.3-6.4-12.2c-0.1-5.1-0.1-10.3-0.2-15.3l0-4.1c0-2.9,0-5.9,0-8.8l0-3.2l-4.6,0
			c-1.4,0-2.9,0-4.3,0c-0.5,0-1.3-0.1-1.8-0.6c-0.6-0.6-0.6-1.5-0.6-1.8c0-3.7,0-6.8,0-9.7c0-1.5,0.7-2.5,2.1-2.9
			c2.6-0.8,5.3-1.9,7.5-3.7c3.3-2.7,5.5-5.8,6.6-9.5c0.8-2.4,1.2-4.5,1.8-7.5l0.2-1.2h13.6v19h0.9c2.2,0,4.3,0,6.5,0
			c3.4,0,6.7,0,10.1,0c0.4,0,1.2,0,1.9,0.7c0.6,0.6,0.7,1.3,0.6,1.9c0,2.9,0,5.8,0,8.8l0,3.8c0,1.3,0,2.8-1.6,2.8H83.3l0,25.1
			c0,2.6,0.6,4.1,2,5.2c1.4,1.1,3.1,1.8,5,2c4,0.4,8-0.6,12.3-3.2l3.1-1.9l0,8.1c0,2.3,0,4.6,0,6.9c0,1.3-0.8,1.9-1.4,2.2
			c-3.4,1.5-7.4,3.1-11.9,3.8c-1.6,0.2-4,0.6-5.4,0.8c0,0,0.8-0.2,0.7-0.2C87.6,119.4,87.3,119.5,86.8,119.5z M86.8,116.5
			c1.3-0.1,3.6-0.5,5.2-0.7c4-0.6,7.7-2.1,10.8-3.4c0-2.2,0-4.4,0-6.6l0-2.8c-4.3,2.3-8.5,3.3-12.7,2.8c-2.5-0.2-4.7-1.1-6.6-2.6
			c-2.8-2.2-3.2-5.2-3.2-7.6l0-25.9c0-1.8,0.9-2.2,1.6-2.2h17.6l0-3.6c0-2.8,0-5.6,0-8.4c-3.2,0-6.4,0-9.6,0c-2.2,0-4.3,0-6.5,0
			h-3.9v-19h-8.1c-0.5,2.4-0.9,4.3-1.6,6.6c-1.3,4.3-3.9,7.9-7.6,10.9c-2.6,2.1-5.6,3.2-8.4,4.2c0,0,0,0,0,0c0,0,0,0,0,0
			c0,2.7,0,5.7,0,9.1c1.2,0,2.5,0,3.7,0l5.1,0c0.2,0,0.5,0,0.7,0l1.6,0.1L65,69c0,0.2,0,0.3,0,0.4l0,4.2c0,2.9,0,5.8,0,8.8l0,4.1
			c0,5,0,10.2,0.2,15.3c0.1,3.9,1.9,7.2,5.2,9.9c2.8,2.2,6,3.6,9.9,4.4l0.7,0.1c1.1,0.2,2.2,0.4,3.2,0.4L86.8,116.5 M53,67.3
			l0.1,1.5l0-1.5C53.1,67.4,53,67.3,53,67.3z"/>
	</g>
</g>
</svg>
